<svg xmlns="http://www.w3.org/2000/svg"><symbol id="gsnab-ico-22" viewBox="0 0 60 60"><path d="M48 36.5c-.4 0-.6.2-.6.6v2.1c0 .3-.1 1.3-.9 2.2-.6.6-1.3.9-2.2.9h-36c-1.7 0-3-1.4-3-3V15.1c0-1.7 1.4-3 3-3h36.1c1.7 0 3 1.4 3 3v1.5c0 .4.2.6.6.6.4 0 .6-.2.6-.6v-1.5c0-2.4-1.9-4.2-4.2-4.2H8.3c-2.4 0-4.2 1.9-4.2 4.2v24.1c0 2.4 1.9 4.2 4.2 4.2h13.3l-1.6 6c-.1.5 0 1.1.3 1.5.4.5 1 .8 1.6.8H31c.7 0 1.3-.3 1.6-.8.4-.4.5-1 .3-1.5l-1.6-6h12.8c1.1 0 2.2-.4 3-1.3 1.1-1.1 1.3-2.5 1.3-3V37c.2-.3-.1-.5-.4-.5zM31.8 50.1c-.2.2-.4.3-.7.3H22c-.3 0-.5-.1-.7-.3-.1-.1-.2-.2-.1-.5l1.7-6.2h7.5l1.6 6.2c-.1.2-.2.4-.2.5z"/><path d="M48 18.7c-4.6 0-8.3 3.7-8.3 8.3 0 .7.1 1.3.2 1.9l-3.5 1c-.4-1.4-1.6-2.5-3.1-2.5-1 0-1.8.4-2.4 1.1l-5.5-3.7h-.1c.2-.5.4-1 .4-1.6 0-1.8-1.5-3.3-3.3-3.3-1.8 0-3.3 1.5-3.3 3.3 0 .7.2 1.3.6 1.9l-5.1 5.1c-.1.1-.1.1-.1.2-.5-.5-1.3-.8-2.1-.8-1.8 0-3.3 1.5-3.3 3.3 0 1.8 1.5 3.3 3.3 3.3s3.3-1.5 3.3-3.3c0-.6-.2-1.1-.5-1.6.1 0 .2-.1.3-.2l5.1-5.1c.5.3 1.1.5 1.8.5.8 0 1.5-.3 2.1-.8l.1.1 5.5 3.7c-.1.4-.2.7-.2 1.1 0 1.8 1.5 3.3 3.3 3.3 1.6 0 3-1.2 3.2-2.8l3.8-1.1c1.2 3.1 4.2 5.3 7.8 5.3 4.6 0 8.3-3.7 8.3-8.3 0-4.6-3.7-8.3-8.3-8.3zM12.5 35c-1.1 0-2.1-.9-2.1-2.1 0-1.1.9-2.1 2.1-2.1s2.1.9 2.1 2.1c-.1 1.2-1 2.1-2.1 2.1zm9.9-9.7c-.5 0-.8-.2-1.2-.4 0-.1-.1-.1-.1-.2s-.1-.1-.2-.1c-.3-.4-.5-.8-.5-1.3 0-1.1.9-2.1 2.1-2.1s2.1.9 2.1 2.1-1.1 2-2.2 2zm10.8 7.5c-1.1 0-2.1-.9-2.1-2.1s.9-2.1 2.1-2.1 2.1.9 2.1 2.1c-.1 1.2-1 2.1-2.1 2.1zM48 34.2c-3.9 0-7.1-3.2-7.1-7.1S44 20 48 20s7.1 3.2 7.1 7.1-3.2 7.1-7.1 7.1z"/><path d="M50.7 24l-3.6 4.9-2-1.9c-.2-.2-.6-.2-.8 0-.2.2-.2.6 0 .8l2.5 2.4h.1l.1.1s.1 0 .1.1c.1 0 .1.1.2.1s.2 0 .2-.1l.1-.1c.1 0 .1-.1.1-.1v-.1l4-5.4c.2-.2.1-.7-.1-.8-.3-.3-.7-.2-.9.1z"/></symbol><symbol id="gsnab-ico_analytics" viewBox="0 0 60 60"><path d="M49.6 49.7L36.5 36.6c3.4-3 5.5-7.3 5.5-12.1 0-8.8-7.2-16-16-16s-16 7.2-16 16 7.2 16 16 16c3.6 0 6.9-1.2 9.6-3.2l13.2 13.2c.1.1.3.2.4.2s.3-.1.4-.2c.2-.3.2-.6 0-.8zM11.2 24.5c0-8.2 6.7-14.9 14.9-14.9S41 16.3 41 24.5s-6.7 14.9-14.9 14.9c-8.3 0-14.9-6.7-14.9-14.9zM36 28.8h-1.6c.1-.2.1-.4.1-.5V22c0-.9-.8-1.6-1.6-1.6h-1.3c-.9 0-1.6.8-1.6 1.6v6.3c0 .2.1.4.1.5h-2.2c.1-.2.1-.4.1-.5v-8.6c0-.9-.8-1.6-1.6-1.6h-1.3c-.9 0-1.6.8-1.6 1.6v8.6c0 .2.1.4.1.5h-2.1c.1-.2.1-.4.1-.5v-2.5c0-.9-.8-1.6-1.6-1.6h-1.3c-.9 0-1.6.8-1.6 1.6v2.5c0 .2.1.4.1.5H16c-.3 0-.5.2-.5.5s.2.5.5.5h20.3c.3 0 .5-.2.5-.5s-.5-.5-.8-.5zm-17.8 0c-.3 0-.5-.3-.5-.5v-2.5c0-.3.3-.5.5-.5h1.3c.3 0 .5.3.5.5v2.5c0 .3-.3.5-.5.5h-1.3zm6.6 0c-.3 0-.5-.3-.5-.5v-8.7c0-.3.3-.5.5-.5h1.3c.3 0 .5.3.5.5v8.6c0 .3-.3.5-.5.5l-1.3.1zm6.6 0c-.3 0-.5-.3-.5-.5V22c0-.3.3-.5.5-.5h1.3c.3 0 .5.3.5.5v6.3c0 .3-.3.5-.5.5h-1.3z"/></symbol><symbol id="gsnab-ico_analytics2" viewBox="0 0 60 60"><path d="M48 36.5c-.4 0-.6.2-.6.6v2.1c0 .3-.1 1.3-.9 2.2-.6.6-1.3.9-2.2.9h-36c-1.7 0-3-1.4-3-3V15.1c0-1.7 1.4-3 3-3h36.1c1.7 0 3 1.4 3 3v1.5c0 .4.2.6.6.6.4 0 .6-.2.6-.6v-1.5c0-2.4-1.9-4.2-4.2-4.2H8.3c-2.4 0-4.2 1.9-4.2 4.2v24.1c0 2.4 1.9 4.2 4.2 4.2h13.3l-1.6 6c-.1.5 0 1.1.3 1.5.4.5 1 .8 1.6.8H31c.7 0 1.3-.3 1.6-.8.4-.4.5-1 .3-1.5l-1.6-6h12.8c1.1 0 2.2-.4 3-1.3 1.1-1.1 1.3-2.5 1.3-3V37c.2-.3-.1-.5-.4-.5zM31.8 50.1c-.2.2-.4.3-.7.3H22c-.3 0-.5-.1-.7-.3-.1-.1-.2-.2-.1-.5l1.7-6.2h7.5l1.6 6.2c-.1.2-.2.4-.2.5z"/><path d="M48 18.7c-4.6 0-8.3 3.7-8.3 8.3 0 .7.1 1.3.2 1.9l-3.5 1c-.4-1.4-1.6-2.5-3.1-2.5-1 0-1.8.4-2.4 1.1l-5.5-3.7h-.1c.2-.5.4-1 .4-1.6 0-1.8-1.5-3.3-3.3-3.3-1.8 0-3.3 1.5-3.3 3.3 0 .7.2 1.3.6 1.9l-5.1 5.1c-.1.1-.1.1-.1.2-.5-.5-1.3-.8-2.1-.8-1.8 0-3.3 1.5-3.3 3.3 0 1.8 1.5 3.3 3.3 3.3s3.3-1.5 3.3-3.3c0-.6-.2-1.1-.5-1.6.1 0 .2-.1.3-.2l5.1-5.1c.5.3 1.1.5 1.8.5.8 0 1.5-.3 2.1-.8l.1.1 5.5 3.7c-.1.4-.2.7-.2 1.1 0 1.8 1.5 3.3 3.3 3.3 1.6 0 3-1.2 3.2-2.8l3.8-1.1c1.2 3.1 4.2 5.3 7.8 5.3 4.6 0 8.3-3.7 8.3-8.3 0-4.6-3.7-8.3-8.3-8.3zM12.5 35c-1.1 0-2.1-.9-2.1-2.1 0-1.1.9-2.1 2.1-2.1s2.1.9 2.1 2.1c-.1 1.2-1 2.1-2.1 2.1zm9.9-9.7c-.5 0-.8-.2-1.2-.4 0-.1-.1-.1-.1-.2s-.1-.1-.2-.1c-.3-.4-.5-.8-.5-1.3 0-1.1.9-2.1 2.1-2.1s2.1.9 2.1 2.1-1.1 2-2.2 2zm10.8 7.5c-1.1 0-2.1-.9-2.1-2.1s.9-2.1 2.1-2.1 2.1.9 2.1 2.1c-.1 1.2-1 2.1-2.1 2.1zM48 34.2c-3.9 0-7.1-3.2-7.1-7.1S44 20 48 20s7.1 3.2 7.1 7.1-3.2 7.1-7.1 7.1z"/><path d="M50.7 24l-3.6 4.9-2-1.9c-.2-.2-.6-.2-.8 0-.2.2-.2.6 0 .8l2.5 2.4h.1l.1.1s.1 0 .1.1c.1 0 .1.1.2.1s.2 0 .2-.1l.1-.1c.1 0 .1-.1.1-.1v-.1l4-5.4c.2-.2.1-.7-.1-.8-.3-.3-.7-.2-.9.1z"/></symbol><symbol id="gsnab-ico_calendar" viewBox="0 0 60 60"><path d="M48.7 11.2h-8.4c-.2 0-.3.1-.4.2V9.6c0-1.2-.9-2.1-2.1-2.1h-1.2c-1.2 0-2.1.9-2.1 2.1v1.6h-10V9.6c0-1.2-.9-2.1-2.1-2.1h-1.2C20 7.4 19 8.4 19 9.6v1.6h-8.1c-.8 0-1.4.6-1.4 1.4v35.6c0 .8.6 1.4 1.4 1.4h29.8c.1 0 .2 0 .2-.1 5.9-.7 9-7.9 9.1-8.2.1-.1.1-.2.1-.2V12.6c0-.8-.6-1.4-1.4-1.4zM35.5 9.6c0-.5.4-1 1-1h1.2c.5 0 1 .4 1 1v4.3c0 .5-.4 1-1 1h-1.2c-.5 0-1-.4-1-1V9.6zm-15.4 0c0-.5.4-1 1-1h1.2c.5 0 1 .4 1 1v4.3c0 .5-.4 1-1 1h-1.2c-.5 0-1-.4-1-1V9.6zm-9.2 2.7H19v1.6c0 1.1 1 2.1 2.2 2.1h1.2c1.2 0 2.1-.9 2.1-2.1v-1.6h10v1.6c0 1.2.9 2.1 2.1 2.1h1.2c1.2 0 2.1-.9 2.1-2.1v-1.8c.1.1.3.2.4.2h8.5c.2 0 .3.1.3.3v6H10.6v-6c0-.2.2-.3.3-.3zm29.2 36.1H10.9c-.2 0-.3-.1-.3-.3V19.6H49v20.2c-1.9.6-6.3 1.5-8 .8h-.1c-.2-.1-.4-.1-.5.1-.3.2-.3.5-.2.8 1 1.6.4 5.3.1 7l-.2-.1zm1.4-.1c.3-1.4.8-4.3.2-6.4.4.1.8.1 1.3.1 2.1 0 4.7-.6 6-1-.4.9-3 6.3-7.5 7.3zm-10-24.4h-2.9c-.2 0-.3.1-.3.3v2.9c0 .2.1.3.3.3h2.9c.2 0 .3-.1.3-.3v-2.9c0-.2-.1-.3-.3-.3zm-.2 2.9h-2.4v-2.4h2.4v2.4zm5.1-2.9h-2.9c-.2 0-.3.1-.3.3v2.9c0 .2.1.3.3.3h2.9c.2 0 .3-.1.3-.3v-2.9c-.1-.2-.2-.3-.3-.3zm-.3 2.9h-2.4v-2.4h2.4v2.4zm2.2.5h2.9c.2 0 .3-.1.3-.3v-2.9c0-.2-.1-.3-.3-.3h-2.9c-.2 0-.3.1-.3.3V27c.1.2.2.3.3.3zm.3-2.9H41v2.4h-2.4v-2.4zm4.6 2.9h2.9c.2 0 .3-.1.3-.3v-2.9c0-.2-.1-.3-.3-.3h-2.9c-.2 0-.3.1-.3.3V27c0 .2.1.3.3.3zm.3-2.9h2.4v2.4h-2.4v-2.4zm-29.6 4.8h3.5v3.5h-3.5v-3.5zm4.8 0h3.5v3.5h-3.5v-3.5zm4.9 0H27v3.5h-3.5l.1-3.5zm4.8 0h3.5v3.5h-3.5v-3.5zm4.8 0h3.5v3.5h-3.5v-3.5zm5.1 3.5h2.9c.2 0 .3-.1.3-.3v-2.9c0-.2-.1-.3-.3-.3h-2.9c-.2 0-.3.1-.3.3v2.9c.1.1.2.3.3.3zm.3-3H41v2.4h-2.4v-2.4zm4.6 3h2.9c.2 0 .3-.1.3-.3v-2.9c0-.2-.1-.3-.3-.3h-2.9c-.2 0-.3.1-.3.3v2.9c0 .1.1.3.3.3zm.3-3h2.4v2.4h-2.4v-2.4zM17 34.5h-2.9c-.2 0-.3.1-.3.3v2.9c0 .2.1.3.3.3H17c.2 0 .3-.1.3-.3v-2.9c0-.2-.1-.3-.3-.3zm-.2 2.9h-2.4V35h2.4v2.4zm5.1-2.9H19c-.2 0-.3.1-.3.3v2.9c0 .2.1.3.3.3h2.9c.2 0 .3-.1.3-.3v-2.9c-.1-.2-.2-.3-.3-.3zm-.3 2.9h-2.4V35h2.4v2.4zm5.1-2.9h-2.9c-.2 0-.3.1-.3.3v2.9c0 .2.1.3.3.3h2.9c.2 0 .3-.1.3-.3v-2.9c0-.2-.1-.3-.3-.3zm-.3 2.9H24V35h2.4v2.4zm5.1-2.9h-2.9c-.2 0-.3.1-.3.3v2.9c0 .2.1.3.3.3h2.9c.2 0 .3-.1.3-.3v-2.9c0-.2-.1-.3-.3-.3zm-.2 2.9h-2.4V35h2.4v2.4zm5.1-2.9h-2.9c-.2 0-.3.1-.3.3v2.9c0 .2.1.3.3.3h2.9c.2 0 .3-.1.3-.3v-2.9c-.1-.2-.2-.3-.3-.3zm-.3 2.9h-2.4V35h2.4v2.4zm5.4.3v-2.9c0-.2-.1-.3-.3-.3h-2.9c-.2 0-.3.1-.3.3v2.9c0 .2.1.3.3.3h2.9c.2-.1.3-.2.3-.3zm-.5-.3h-2.4V35H41v2.4zm2.2.5h2.9c.2 0 .3-.1.3-.3v-2.9c0-.2-.1-.3-.3-.3h-2.9c-.2 0-.3.1-.3.3v2.9c0 .2.1.3.3.3zm.3-2.8h2.4v2.4h-2.4v-2.4zM17 39.8h-2.9c-.2 0-.3.1-.3.3V43c0 .2.1.3.3.3H17c.2 0 .3-.1.3-.3v-2.9c0-.1-.1-.3-.3-.3zm-.2 2.9h-2.4v-2.4h2.4v2.4zm5.1-2.9H19c-.2 0-.3.1-.3.3V43c0 .2.1.3.3.3h2.9c.2 0 .3-.1.3-.3v-2.9c-.1-.1-.2-.3-.3-.3zm-.3 2.9h-2.4v-2.4h2.4v2.4zm5.1-2.9h-2.9c-.2 0-.3.1-.3.3V43c0 .2.1.3.3.3h2.9c.2 0 .3-.1.3-.3v-2.9c0-.1-.1-.3-.3-.3zm-.3 2.9H24v-2.4h2.4v2.4zm5.1-2.9h-2.9c-.2 0-.3.1-.3.3V43c0 .2.1.3.3.3h2.9c.2 0 .3-.1.3-.3v-2.9c0-.1-.1-.3-.3-.3zm-.2 2.9h-2.4v-2.4h2.4v2.4z"/></symbol><symbol id="gsnab-ico_cards" viewBox="0 0 60 60"><path d="M10.1 37.4c-.3 0-.6-.3-.7-.6L7.4 20c-.2-1.7.3-3.4 1.3-4.6.9-1 2.1-1.5 3.5-1.5h37.3c1.8 0 3.4.7 4.4 1.9.9 1 1.2 2.2 1.1 3.5l-2.1 17.5c-.1.3-.4.6-.8.6-.3-.1-.6-.4-.6-.8l2.1-17.5c.1-.9-.1-1.8-.8-2.5-.8-.9-2.1-1.4-3.4-1.4H12.2c-1 0-1.8.3-2.4 1-.8.8-1.2 2.1-1 3.5l2 16.8c.1.4-.2.8-.7.9zm40.1 3.4c.8 0 1.3.4 1.6.7.4.5.6 1.2.5 1.9l-1.2 8.4H10.7l-1.2-8.4c-.1-.7.1-1.4.5-1.9s1-.8 1.7-.8h38.5zm0-1.4H11.7c-2.4 0-3.9 2-3.5 4.3l1.4 9.5h42.8l1.4-9.5c.3-2.3-1.2-4.3-3.6-4.3zm-3.4-28.3H15c-.4 0-.7-.3-.7-.7s.3-.7.7-.7h31.8c.4 0 .7.3.7.7s-.3.7-.7.7zm-3.5-3.5H18.4c-.4 0-.7-.3-.7-.7s.3-.7.7-.7h24.9c.4 0 .7.3.7.7s-.3.7-.7.7zM22.7 21c.6 0 1.7.3 1.7 1v2.1l.2.3.1.2v.4c-.5.6-1.2 1.8-1.2 3.3 0 .6.2 2.6 2.9 2.6.3 0 1 .3 1.3.5.6.4.9.8 1 1-.9.3-3 .6-6.1.6s-5.1-.3-6.1-.6c.1-.3.4-.6 1-1 .3-.2 1-.5 1.3-.5 2.7 0 2.9-2 2.9-2.6 0-1.5-.8-2.7-1.2-3.3v-.4l.1-.2.2-.3V22c.2-.6 1.3-1 1.9-1zm0-1.3c-1.2 0-3.1.8-3.1 2.4v1.7l-.1.3c-.1.1-.1.3-.1.5v.6c0 .3.1.5.3.7.3.4 1 1.3 1 2.5 0 1.1-.8 1.2-1.5 1.2-.6 0-1.7.4-2.1.7-.9.6-1.7 1.5-1.7 2.7 0 1 3.8 1.5 7.6 1.5s7.6-.5 7.6-1.5c0-1.2-.9-2.1-1.7-2.7-.4-.3-1.5-.7-2.1-.7-.7 0-1.5-.1-1.5-1.2 0-1.1.6-2.1 1-2.5.1-.2.3-.5.3-.7v-.6c0-.2-.1-.3-.1-.5l-.1-.3v-1.7c-.6-1.7-2.4-2.4-3.7-2.4zm24.1 6.6H32.2c-.4 0-.7-.3-.7-.7s.3-.7.7-.7h14.5c.4 0 .7.3.7.7s-.2.7-.6.7zm-1.4 4.1H32.2c-.4 0-.7-.3-.7-.7 0-.4.3-.7.7-.7h13.1c.4 0 .7.3.7.7.1.5-.3.7-.6.7z"/></symbol><symbol id="gsnab-ico_chat" viewBox="0 0 60 60"><path d="M19.4 18.4c-8.3 0-15 6.5-15 14.6 0 3.8 1.5 7.3 4 9.9-.1 2.5-.5 6-2 7.7 2.9 0 5.8-2.3 7.6-4 1.7.7 3.6 1 5.5 1 8.3 0 15-6.5 15-14.6s-6.8-14.6-15.1-14.6zm0 27.8c-1.7 0-3.5-.3-5.1-.9l-.7-.3-.6.6c-1 .9-2.6 2.3-4.3 3.1.5-1.6.8-3.5.9-5.8v-.6l-.4-.4c-2.3-2.5-3.6-5.7-3.6-9-.1-7.3 6.1-13.3 13.8-13.3 7.6 0 13.8 6 13.8 13.3S27 46.2 19.4 46.2zm34.3-7.6c-1.1-1.2-1.7-3.7-1.8-7 2.6-2.8 4-6.3 4-10.1 0-8.4-7-15.2-15.6-15.2-5.7 0-11 3.1-13.8 7.9-.2.3-.1.7.2.8.3.2.7.1.8-.2 2.5-4.5 7.4-7.3 12.6-7.3 8 0 14.4 6.2 14.4 13.9 0 3.5-1.3 6.9-3.8 9.5l-.1.1v.3c.1 2.2.4 4.9 1.4 6.9-2.3-.6-4.6-2.5-5.8-3.7l-.3-.3-.4.2c-1.7.7-3.5 1-5.3 1-.3 0-.6.3-.6.6s.3.6.6.6c1.8 0 3.7-.3 5.4-.9 2 1.8 4.8 3.9 7.7 3.9h1.4l-1-1zM36.9 19.5c-.8 0-1.4.7-1.4 1.4 0 .8.7 1.4 1.4 1.4.8 0 1.4-.7 1.4-1.4 0-.8-.6-1.4-1.4-1.4zm4.5 0c-.8 0-1.4.7-1.4 1.4 0 .8.7 1.4 1.4 1.4.8 0 1.4-.7 1.4-1.4 0-.8-.6-1.4-1.4-1.4zm4.5 0c-.8 0-1.4.7-1.4 1.4 0 .8.7 1.4 1.4 1.4.8 0 1.4-.7 1.4-1.4 0-.8-.6-1.4-1.4-1.4zm-30 8.6c.2-.2.4-.4.7-.6.2-.2.5-.3.8-.4l.9-.3c.3-.1.7-.1 1.1-.1.5 0 1 .1 1.4.2.4.2.8.3 1.1.6.3.3.6.6.8 1 .2.4.3.8.3 1.3s-.1.9-.2 1.3c-.2.3-.3.7-.6.9-.2.3-.4.5-.7.7-.3.2-.5.4-.7.6-.2.2-.4.3-.6.5-.2.2-.4.2-.4.4l-.1.5h-1.2l-.1-1.1c0-.3.1-.3.2-.5s.3-.3.6-.4c.2-.2.4-.3.7-.5.3-.2.5-.3.7-.6.2-.2.4-.4.6-.8.2-.3.2-.6.2-1.1 0-.3-.1-.6-.2-.8-.1-.2-.3-.4-.4-.6-.2-.2-.4-.3-.7-.4-.3.1-.6.1-.9.1-.4 0-.7.1-1 .2-.3.1-.5.2-.7.3-.2.1-.3.2-.5.3-.1.1-.2.2-.3.2-.2 0-.3-.1-.4-.2l-.4-.7zm2 10.4c0-.2 0-.3.1-.4.1-.1.1-.2.2-.3.1-.1.2-.2.3-.2.1-.1.3-.1.4-.1.2 0 .3.1.4.1.1.1.2.1.3.2.1.1.2.2.2.3.1.1.1.3.1.4 0 .2-.1.3-.1.4-.1.1-.1.2-.2.3-.1.1-.2.2-.3.2-.1.1-.3.1-.4.1-.2 0-.3 0-.4-.1-.1-.1-.2-.1-.3-.2-.1-.1-.2-.2-.2-.3 0-.1-.1-.3-.1-.4z"/></symbol><symbol id="gsnab-ico_dashboard" viewBox="0 0 60 60"><path d="M32.1 52.2V26.8h20.1v25.4H32.1zm1.2-1.1H51V28H33.3v23.1zM7.8 52.2V37.6h20.1v14.7H7.8zM9 51.1h17.7V38.8H9v12.3zM7.8 33.4V7.9h20.1v25.4H7.8zM9 32.2h17.7V9.1H9v23.1zm23.1-9.6V7.9h20.1v14.7H32.1zm1.2-1.2H51V9.1H33.3v12.3z"/></symbol><symbol id="gsnab-ico_focus" viewBox="0 0 60 60"><path d="M45.1 19.3c-.3.2-.3.6-.1.9 2.6 3.7 4 8 4 12.6 0 11.9-9.6 21.6-21.6 21.6S5.9 44.6 5.9 32.8c0-11.9 9.7-21.6 21.6-21.6 4.3 0 8.5 1.3 12.1 3.7.3.2.7.1.9-.2.2-.3.1-.7-.2-.9-3.8-2.6-8.2-3.9-12.8-3.9C14.9 10 4.7 20.2 4.7 32.8s10.2 22.8 22.8 22.8 22.8-10.2 22.8-22.8c0-4.8-1.5-9.4-4.3-13.3-.2-.3-.6-.4-.9-.2zm-17.6.6c1.6 0 3.3.3 4.8.9.3.1.7 0 .8-.4.1-.3 0-.7-.4-.8-1.7-.7-3.5-1-5.3-1-7.8 0-14.1 6.4-14.1 14.2s6.4 14.1 14.1 14.1 14.1-6.4 14.1-14.1c0-1.5-.3-3-.7-4.4-.1-.3-.4-.5-.8-.4-.3.1-.5.4-.4.8.4 1.3.6 2.6.6 4 0 7.1-5.8 12.9-12.9 12.9s-12.9-5.9-12.9-12.9c.2-7.1 6-12.9 13.1-12.9zm28-9.1c.1-.1.1-.3 0-.5-.1-.1-.2-.3-.3-.3h-4.9V5.6c0-.1 0-.2-.1-.3l-.3-.3h-.6l-.1.1-6.2 6.3c-.1.1-.1.1-.1.2-.1.1-.1.2-.1.3v4.7l-13.1 13c-.6-.4-1.3-.6-2.1-.6-2.1 0-3.8 1.7-3.8 3.8s1.7 3.8 3.8 3.8 3.8-1.7 3.8-3.8c0-.8-.3-1.6-.8-2.3l13.2-13.2h5c.1 0 .2 0 .3-.1.1-.1.1-.1.2-.1l6.2-6.2c-.2.1-.1 0 0-.1zm-7 5.3h-4.3V12L49 7.1v3.5c0 .4.3.6.6.6h3.7l-4.8 4.9zM30.1 32.8c0 1.4-1.1 2.5-2.5 2.5S25 34.2 25 32.8s1.1-2.5 2.5-2.5c.4 0 .8.1 1.2.3L27 32.3c-.3.3-.3.6 0 .9.1.1.3.2.4.2s.3-.1.4-.2l1.8-1.8c.3.4.5.9.5 1.4z"/></symbol><symbol id="gsnab-ico_hands" viewBox="0 0 60 60"><path d="M25.7 47.9c-1.1 0-2-.6-2.5-1.5-.1-.2-.2-.5-.2-.7l-.2-.3-.2-.1h-.3l-.4.2c-.4.2-.8.3-1.2.3-.3 0-.6 0-.9-.1-.7-.2-1.2-.7-1.6-1.4-.2-.4-.3-.7-.3-1.1l-.1-.3-.1-.1-.3-.1c-.2 0-.4 0-.6-.1-.7-.2-1.3-.7-1.6-1.4-.4-.9-.4-1.9.2-2.7l.1-.3V38l-.1-.2c-.3-.3-.5-.7-.7-1-.7-1.4-.1-3 1.3-3.7l4.7-2.3c.1 0 .2-.1.3-.1.3 0 .5.2.6.4.1.2.1.4 0 .5-.1.2-.2.3-.3.4l-4.7 2.3c-.4.2-.6.5-.7.9-.1.3-.1.7.1 1 .2.4.5.6.8.7.1 0 .2.1.4.1s.4-.1.6-.2l8.9-4.4c.1 0 .2-.1.3-.1.3 0 .5.1.6.4.1.2.1.4 0 .5-.1.2-.2.3-.3.4L18.2 38l-1.3.6c-.4.2-.6.5-.7.9-.1.3-.1.7.1 1 .2.4.5.6.8.7.1 0 .2.1.4.1s.4-.1.6-.2l1.2-.6.5-.2 9.5-4.7c.1 0 .2-.1.3-.1.3 0 .5.1.6.4.1.2.1.4 0 .5-.1.2-.2.3-.3.4l-7.4 3.6-2.1 1-.4.4c-.4.2-.6.5-.7.9-.1.3-.1.7.1 1 .2.4.5.6.8.7.1 0 .2.1.4.1s.4-.1.6-.2l10.2-5c.1 0 .2-.1.3-.1.3 0 .5.2.6.4.1.2.1.4 0 .5-.1.2-.2.3-.3.4l-6.9 3.4c-.4.2-.6.5-.7.9-.1.3-.1.7.1 1 .2.5.7.8 1.2.8.2 0 .4-.1.6-.2l12.3-6c2.6-1.3 5-2.9 7.2-4.9l2.2-2 .1-.2v-.4l-7.3-15c-.1-.2-.1-.3 0-.5s.2-.3.3-.4l6.4-3.2c.1 0 .2-.1.3-.1.3 0 .5.2.6.4l7.8 15.8c.1.1.1.3 0 .5s-.2.4-.3.4l-6.4 3.1v.1l-2.8 2.5c-2.1 2-4.6 3.7-7.5 5.1l-12.3 6c-.3.2-.8.3-1.2.3zM47 15.5l-4.2 2.1-.2.2-.1.2v.3l6.7 13.6.2.2.2.1h.3l4.2-2.1.2-.2.1-.2v-.3l-6.7-13.6-.2-.2-.2-.1H47zM11.2 34H11l-6.8-2.4c-.4-.1-.6-.5-.4-.9L9.5 14c.1-.3.4-.5.7-.5h.2l6.7 2.3s.1.1.2.1h.1l1.1.4c.4.2.9.2 1.3.2.6 0 1.1-.1 1.6-.4l.6-.4c.6-.3 1.3-.5 2.1-.5.6 0 1.1.1 1.7.3L39 20.2c.2.1.5.4.5.7 0 0 0 2.3-1.7 3.5-.5.4-1.1.6-1.9.6-.6 0-1.2-.1-1.9-.4l-4.4-1.5h-.3l-.2.1-.2.2c-.3.7-1.3 2.9-3.6 4.2-1 .6-2.2.9-3.5.9-1.1 0-2.3-.2-3.6-.7-.4-.1-.6-.5-.4-.9.1-.3.4-.5.7-.5h.2c1.1.4 2.2.6 3.2.6s2-.2 2.8-.7C27.2 25 28 22.1 28 22c0-.2.2-.3.3-.4h.5l5.6 1.9c.5.2 1 .3 1.5.3s.9-.1 1.2-.4c.5-.4.8-1.1.9-1.4v-.3l-.1-.2-.2-.2L25.4 17c-.4-.1-.8-.2-1.2-.2-.6 0-1.1.1-1.6.4l-.7.3c-.7.3-1.5.5-2.3.5-.6 0-1.2-.1-1.7-.3h-.4l-.2.1-.2.2-5.3 15.4c-.1.2-.2.3-.3.4-.1.1-.2.2-.3.2zm-.4-18.7l-.2.1-.2.2L5.5 30v.3l.1.2.2.2 4.5 1.5h.3l.2-.1.2-.2 4.9-14.4v-.3l-.1-.2-.2-.2-4.5-1.5h-.3z"/></symbol><symbol id="gsnab-ico_hands_help" viewBox="0 0 60 60"><path d="M30.4 17.9c-.1 0-.2.1-.4.2l-1 .7-7.7-.1-7.3-6.1c-.2-.2-.5-.1-.7.1-.2.2-.1.5.1.7l7.6 6.4h6.7l-4.1 2.8c-.1 0-.2.1-.2.2-.2.2-.5.4-.6.6l-2.5 3.5c-.4.6-.3 1.4.3 1.8l1 .6c1.1.7 2.7.4 3.5-.7L26 27c.1 0 .2-.1.3-.1l3.1-1.4 1.5 1.7c.4.4.8.7 1.2 1l7.5 6.6c.3.4.5.9.4 1.4s-.3.9-.6 1.3c-.4.3-.9.5-1.4.4-.5 0-.9-.2-1.3-.6 0 0 0-.1-.1-.1-.2-.2-.5-.2-.7 0-.2.2-.2.5 0 .7l.1.1c.3.4.4.8.4 1.3s-.3.9-.6 1.3c-.4.3-.9.5-1.4.4-.5 0-.9-.2-1.3-.6-.1-.1-.2-.3-.3-.4-.2-.2-.5-.2-.7 0-.2.2-.2.5 0 .7.7.8.6 2-.2 2.6-.8.7-2 .6-2.6-.2-.1-.2-.2-.4-.4-.5-.2-.2-.5-.2-.7 0-.2.2-.2.5 0 .7.3.4.5.9.4 1.4 0 .5-.3.9-.6 1.3-.4.3-.9.5-1.4.4-.5 0-.9-.3-1.3-.6l-1.1-1.2c.9-.7 1.1-2 .5-2.9-.5-.8-1.5-1.1-2.3-.9.2-.6.2-1.4-.2-2-.5-.8-1.5-1.1-2.4-.9.4-.7.4-1.6-.1-2.2-.5-.8-1.4-1.1-2.3-.9.1-.5 0-1.1-.3-1.5-.5-.7-1.4-1.1-2.2-.9l-2.2-4.3L5 21.3c-.2-.2-.5-.1-.7.1-.2.2-.1.5.1.7l7.5 6.3 2 4c-.9.7-1.1 1.9-.4 2.9.3.5.8.8 1.4.9-.4.7-.4 1.6 0 2.3.6.8 1.6 1.1 2.5.8-.4.7-.4 1.5.1 2.2.5.8 1.5 1.1 2.3.9-.2.6-.2 1.4.2 2 .7 1 2 1.2 3 .6l.3-.2 1.2 1.4c.5.6 1.2.9 2 1h.2c.7 0 1.4-.2 1.9-.7.6-.5.9-1.2 1-2v-.1c.4.1.7.2 1.1.2.7 0 1.4-.2 1.9-.7.7-.6 1-1.4 1-2.2.2.1.5.1.8.2h.2c.7 0 1.4-.2 1.9-.7.7-.6 1.1-1.6 1-2.4.2.1.5.1.8.1.7 0 1.4-.2 1.9-.7.6-.5.9-1.2 1-2 0-.8-.2-1.5-.7-2.1l-.4-.3 5.2-3.4 9.4-3.4c.3-.1.4-.4.3-.6-.1-.2-.4-.4-.6-.3l-9.5 3.4-5.5 3.6-4.5-4.1c1.7.3 3.6 0 5-1l1.9-1.3c.2-.1.3-.5.1-.7-.1-.2-.5-.3-.7-.1l-.1.1-1.9 1.3c-2.3 1.5-5.7 1.2-7.6-.9L30 24.5c-.1-.1-.2-.2-.2-.4L26 25.9c-.2.1-.4.1-.5.1l-1.3 1.9c-.5.7-1.4.9-2.2.4l-1-.6c-.1-.1-.2-.2-.1-.3l2.5-3.5c.1-.2.3-.3.4-.4 0 0 .1-.1.2-.1l6.6-4.4c.1-.1.3-.2.5-.2l4.7-.6c.1 0 .8-.1.9-.1l9.1-1.1 5.6-2.2c.2-.1.4-.4.3-.6-.1-.3-.4-.4-.6-.3l-6 2.4-7.9.9c-.1 0-1.4.1-1.6.2l-4.4.5h-.8zM14.3 34.7c-.4-.5-.2-1.3.3-1.6.5-.4 1.3-.2 1.6.3.4.5.2 1.3-.3 1.6-.6.4-1.3.3-1.6-.3zm3 3.6c-.5.4-1.3.2-1.6-.3-.4-.5-.2-1.3.3-1.6l1.2-.8c.5-.4 1.3-.2 1.6.3.4.5.2 1.3-.3 1.6l-1.2.8zm2.6 3c-.5.4-1.3.2-1.6-.3-.4-.5-.2-1.3.3-1.6l1.1-.7c.5-.4 1.3-.2 1.6.3.4.5.2 1.3-.3 1.6l-1.1.7zm3.6 2.1l-1.1.7c-.5.4-1.3.2-1.6-.3-.4-.5-.2-1.3.3-1.6l1.1-.7c.5-.4 1.3-.2 1.6.3.4.6.3 1.3-.3 1.6z"/></symbol><symbol id="gsnab-ico_heart" viewBox="0 0 60 60"><path d="M55.6 21.2c0-4.1-1.6-7.9-4.5-10.8C48.2 7.6 44.4 6 40.3 6c-3.9 0-7.6 1.5-10.4 4.1-2.8-2.6-6.4-4-10.3-4-4.1 0-7.9 1.6-10.8 4.5-5.9 5.9-5.9 15.6 0 21.5l3.9 3.9c-.4.6-.6 1.2-.6 2 0 .9.4 1.8 1 2.5.7.7 1.5 1 2.5 1 .3 0 .5 0 .8-.1-.1.3-.1.5-.1.8 0 .9.4 1.8 1 2.5.7.7 1.5 1 2.5 1 .3 0 .5 0 .8-.1-.3 1.1 0 2.4.9 3.3.7.7 1.5 1 2.5 1 .3 0 .5 0 .8-.1-.3 1.1 0 2.4.9 3.3.7.7 1.5 1 2.5 1 .7 0 1.4-.2 2-.6.6.4 1.2.6 1.9.6.9 0 1.8-.4 2.5-1 .8-.8 1.1-1.8 1-2.8.4.2.9.3 1.4.3.9 0 1.8-.4 2.5-1 .9-.9 1.2-2.1.9-3.3.3.1.5.1.8.1.9 0 1.8-.4 2.5-1 .7-.7 1-1.5 1-2.5 0-.5-.1-1-.3-1.4 1 .1 2-.3 2.8-1 .7-.7 1-1.5 1-2.5 0-.8-.3-1.6-.8-2.2l3.7-3.7c2.9-3 4.5-6.8 4.5-10.9zM17.2 39.5c-.2.2-.4.3-.6.4-.3.2-.7.3-1 .3-.6 0-1.1-.2-1.6-.6-.4-.4-.7-1-.7-1.6 0-.4.1-.7.3-1 .1-.2.2-.4.4-.5l3.8-3.8c.4-.4 1-.6 1.6-.6.6 0 1.2.2 1.6.6.9.9.9 2.3 0 3.1l-3.8 3.7zm4.2 4.2c-.2.2-.4.3-.6.4-.3.2-.7.3-1 .3-.6 0-1.2-.2-1.6-.6-.7-.7-.8-1.8-.4-2.6.1-.2.2-.4.4-.6l5.2-5.2c.4-.4 1-.7 1.6-.7.6 0 1.1.2 1.6.7.4.4.6 1 .6 1.6 0 .6-.2 1.2-.6 1.6l-5.2 5.1zm4.2 4.2c-.2.2-.4.3-.6.4-.3.2-.7.3-1 .3-.6 0-1.2-.2-1.6-.6-.7-.7-.8-1.8-.4-2.6.1-.2.2-.4.4-.6l4.8-4.8c.4-.4 1-.6 1.6-.6.6 0 1.2.2 1.6.6.9.9.9 2.3 0 3.1l-.2.2-4.6 4.6zm4.6 3.7l-.4.4c-.2.2-.4.3-.6.4-.3.2-.7.3-1 .3-.6 0-1.2-.2-1.6-.6-.7-.7-.8-1.7-.4-2.6.1-.2.2-.4.4-.6l3.6-3.6c.4-.4.8-.6 1.4-.6h.2c.6 0 1.2.2 1.6.6.5.5.7 1.1.6 1.8 0 .5-.2 1-.6 1.4l-.1.1-3.1 3zm3.5.4c-.4.4-1 .6-1.6.6-.3 0-.6-.1-.9-.2l2.9-2.9c.4.8.3 1.8-.4 2.5zm12.6-12.6c-.4.4-1 .6-1.6.6-.6 0-1.1-.2-1.6-.6L34.7 31c-.2-.2-.6-.2-.9 0l-.2.2c-.1.1-.2.3-.2.4 0 .2.1.3.2.4l9.1 9.1c.4.4.6 1 .6 1.6 0 .6-.2 1.2-.6 1.6-.4.4-1 .6-1.6.6-.6 0-1.1-.2-1.6-.6l-9-9.3c-.1-.1-.3-.3-.4-.3-.2 0-.3.2-.4.4l-.2.2c-.2.2-.2.7 0 .9l9.1 9.1c.9.9.9 2.3 0 3.1-.4.4-1 .7-1.6.7-.6 0-1.1-.2-1.6-.6l-.4-.4c.5-1.2.2-2.7-.8-3.7-.7-.7-1.5-1-2.5-1h-.1c.9-1.4.7-3.2-.5-4.4-.7-.7-1.5-1-2.5-1h-.5c.1-.4.2-.7.2-1.1 0-.9-.4-1.8-1-2.5-.7-.7-1.5-1-2.5-1-.8 0-1.5.2-2.1.7 0-.9-.3-1.8-1-2.5s-1.5-1-2.5-1c-.9 0-1.8.4-2.5 1L13.6 35l-3.8-3.8c-5.4-5.4-5.4-14.3 0-19.7 2.6-2.6 6.1-4.1 9.9-4.1 3.5 0 6.8 1.3 9.4 3.6L17.6 22.4c-1.4 1.4-1.4 3.6 0 4.9l.6.6c.7.7 1.5 1 2.5 1 .9 0 1.8-.4 2.5-1l7.4-7.4 15.7 15.7c.4.4.6 1 .6 1.6 0 .6-.2 1.2-.6 1.6zm.3-4.7L31.1 19.1c-.1 0-.2-.1-.3-.1h-.2c-.2 0-.3.1-.4.2L22.3 27c-.4.4-1 .6-1.6.6-.6 0-1.1-.2-1.6-.6l-.6-.6c-.9-.9-.9-2.3 0-3.1l11.9-11.9.1-.1c2.6-2.6 6.1-4 9.7-4 3.7 0 7.2 1.5 9.9 4.1 2.6 2.6 4.1 6.1 4.1 9.9s-1.5 7.2-4.1 9.9l-3.5 3.5z"/></symbol><symbol id="gsnab-ico_ka4estvo" viewBox="0 0 60 60"><path d="M41.6 54.9c-4.4 0-10.2-.4-14.7-.7-3.4-.2-6.3-.4-8-.4h-9c-2 0-3.3-2-3.3-3.8V30.2c0-1.9 1.5-3.4 3.4-3.4l9.8-.1c.2 0 .5-.1.7-.1 3.7-1.6 6.3-4.8 7.6-9.2.6-1.9.7-3.8.9-5.4.3-3.5.7-6.8 4.9-6.8 1.6 0 3 .7 3.9 2 2.3 3.1 2 9.1.7 13.4-.3 1.1-.3 2.1.1 2.6.8 1.1 3.2 1.2 4.9 1.2h3.1c5.7 0 7 2.5 7 4.7 0 1.4-.4 3.4-1.1 4.2-.3.4-.4 1-.3 1.5.2.6.2 1.4.2 2.4 0 1.2-.3 2.3-.9 3-.3.4-.4.9-.3 1.4.2.6.2 1.3.2 2.2 0 1.7-1 3.1-1.4 3.5-.2.3-.3.7-.3 1.1.1 1.3 0 3.2-1.4 4.7-1.1 1.3-3 2-5.5 2-.2-.2-.7-.2-1.2-.2zM34 6.8c-2.7 0-3 1.6-3.4 5.3-.2 1.7-.3 3.7-1 5.7-1.5 4.9-4.4 8.4-8.6 10.3l-.2.1c-.3.1-.7.2-1.1.2l-9.8.1c-.8 0-1.6.8-1.6 1.7v19.9c0 1 .7 2.1 1.6 2.1h9c1.7 0 4.6.2 8 .4 5.1.3 11.5.7 16.1.7 2.1 0 3.4-.5 4.3-1.4 1-1.1 1.1-2.5 1-3.5 0-.8.2-1.6.7-2.1l.1-.1c.5-.6 1.1-1.6 1.1-2.5 0-.7-.1-1.3-.2-1.7v-.1c-.2-1 0-2 .7-2.8.2-.2.6-.8.6-2 0-.8-.1-1.5-.2-2-.2-1.1 0-2.1.7-3 .3-.4.7-1.8.7-3.1 0-.7 0-3-5.3-3H44c-2.2 0-5-.2-6.2-2-.7-1-.9-2.4-.3-4.1 1.2-4 1.5-9.3-.4-11.9-1.1-.8-2-1.2-3.1-1.2zM20.6 53.9c-.5 0-.8-.3-.8-.8V27.6c0-.5.3-.8.8-.8s.8.3.8.8V53c0 .5-.3.9-.8.9z"/></symbol><symbol id="gsnab-ico_message" viewBox="0 0 60 60"><path d="M48.2 25.6v22.9H11.8V25.7l16.1 11.6c.6.5 1.4.5 1.8.5.5 0 1.2-.1 1.8-.5-.1-.1 16.7-11.7 16.7-11.7zm-36.7-1.5c-.5 0-1 .4-1 1v23.5c0 .6.5 1.2 1.2 1.2h36.6c.6 0 1.2-.5 1.2-1.2V25.1c0-.6-.5-.9-1-.9-.3 0-.6.1-.9.3l-17 11.7c-.2.2-.6.3-1 .3s-.8-.1-1-.3L12.4 24.5c-.3-.3-.6-.4-.9-.4zm34.7 1.7c-.4 0-.6-.3-.6-.6V13.4c0-1.8-.6-1.9-1.3-1.9H15.7c-.7 0-1.3.1-1.3 1.9v11.7c0 .4-.3.6-.6.6s-.6-.3-.6-.6V13.4c0-2.1.8-3.2 2.6-3.2h28.6c1.8 0 2.6 1.1 2.6 3.2v11.7c-.1.4-.4.7-.8.7zm-18.1-9.1h-7.8c-.4 0-.6-.3-.6-.6 0-.4.3-.6.6-.6h7.8c.4 0 .6.3.6.6s-.3.6-.6.6zm11.6 4.5H20.3c-.4 0-.6-.3-.6-.6 0-.4.3-.6.6-.6h19.5c.4 0 .6.3.6.6 0 .4-.3.6-.7.6zm0 4.6H20.3c-.4 0-.6-.3-.6-.6s.3-.6.6-.6h19.5c.4 0 .6.3.6.6s-.3.6-.7.6z"/></symbol><symbol id="gsnab-ico_ps" viewBox="0 0 60 60"><path d="M39.7 34.4l-.2 1.5H55l.2-1.5H39.7z"/><path d="M37.1 27.8c-.8-.7-2-1.2-3.4-1.6-.7-.2-1.2-.4-1.5-.5-.3-.2-.5-.5-.5-.8 0-.5.2-.8.7-1 .4-.2.9-.3 1.5-.3.7 0 1.3.1 1.8.4.5.3.9.6 1.2 1l3.1-2.5c-.6-.8-1.5-1.3-2.5-1.7-1-.4-2.2-.6-3.4-.6-.9 0-1.8.1-2.7.3-.8.2-1.6.6-2.2 1-.6.5-1.1 1-1.5 1.6-.4.6-.6 1.3-.6 2.2 0 .6.1 1.1.3 1.5.2.4.5.8.8 1.1.4.3.8.6 1.4.9.5.2 1.2.5 1.9.7.7.2 1.3.4 1.6.6.4.2.6.5.6.9s-.2.7-.6 1c-.4.2-.9.3-1.6.3-.7 0-1.3-.2-2-.4-.9-.3-2.3-1.1-3-1.8-.1.2-.1.5-.2.7-.3.9-.8 1.8-1.4 2.5.7.8 1.6 1.4 2.7 1.9s2.4.7 3.8.7c.9 0 1.7-.1 2.6-.3s1.6-.5 2.2-1c.6-.4 1.2-1 1.6-1.6.4-.7.6-1.4.6-2.3-.1-1.3-.5-2.2-1.3-2.9z"/><path d="M24.5 22.1c-.5-.6-1.2-1-2-1.3-.8-.3-1.7-.5-2.7-.5-1 0-2 .2-2.9.6-.9.4-1.6 1-2.2 1.8h-.1l.4-2h-4.7l-4 21.9h5l1.6-8.9h.1c.4.7 1 1.2 1.9 1.6.8.4 1.8.6 3 .6s2.4-.3 3.4-.7c1-.5 2-1.1 2.7-2 .8-.8 1.3-1.8 1.8-2.9.4-1.1.6-2.3.6-3.6 0-.9-.1-1.8-.4-2.5-.5-.9-.9-1.6-1.5-2.1zM20.9 29c-.2.6-.5 1.1-.9 1.5-.4.4-.8.8-1.3 1s-1.1.4-1.8.4c-1 0-1.8-.3-2.4-.9-.6-.6-.9-1.3-.9-2.2 0-.6.1-1.2.3-1.8.2-.6.5-1.1.9-1.5.4-.4.8-.8 1.4-1 .5-.3 1.1-.4 1.7-.4 1 0 1.8.3 2.4.9s.8 1.3.8 2.2c.1.7 0 1.3-.2 1.8z"/></symbol><symbol id="gsnab-ico_psoutline" viewBox="0 0 60 60"><path d="M32.7 34.7c-1.3 0-2.6-.2-3.6-.6-1.1-.4-1.9-1-2.6-1.8l-.1-.1v-.3l.1-.1c.5-.7.9-1.4 1.2-2.1 0-.1.1-.3.1-.4l.3-.8.5.4c.7.5 1.9 1.2 2.6 1.5.5.2 1.1.4 1.6.4s.9-.1 1.2-.2c.3-.2.3-.3.3-.5 0-.1 0-.3-.3-.4-.3-.2-.7-.3-1.4-.5l-1.8-.6c-.5-.2-1-.5-1.4-.8-.4-.3-.6-.7-.9-1.2-.2-.5-.3-1-.3-1.5 0-.8.2-1.6.6-2.2.4-.6.9-1.1 1.5-1.6s1.3-.8 2.1-1c.8-.2 1.6-.3 2.5-.3 1.1 0 2.2.2 3.2.6 1 .4 1.8.9 2.4 1.7l.3.4-3.5 2.8-.3-.4c-.2-.3-.5-.5-.9-.7-.4-.2-.9-.3-1.4-.3-.4 0-.8.1-1.1.2-.3.1-.3.3-.3.5 0 .1 0 .2.2.3.3.1.7.3 1.2.4 1.4.4 2.5.9 3.3 1.5.8.7 1.3 1.6 1.3 2.9 0 .9-.2 1.7-.6 2.3-.4.7-1 1.2-1.6 1.6-.6.4-1.4.7-2.2.9-.6-.1-1.4 0-2.2 0zm-5.3-2.8c.5.5 1.2 1 2 1.3 1.5.6 3.4.8 5.5.3.7-.2 1.3-.4 1.9-.8.5-.3.9-.8 1.3-1.3.3-.5.5-1.1.5-1.8 0-1-.4-1.7-1-2.3-.7-.5-1.6-1-2.9-1.3-.6-.2-1.1-.3-1.5-.5-.6-.3-.7-.8-.7-1.1 0-.6.3-1.1.9-1.3 1.1-.5 2.4-.4 3.4.1.4.2.7.4.9.7l2.1-1.7c-.5-.5-1-.8-1.7-1.1-1.6-.6-3.6-.6-5.1-.2-.7.2-1.3.5-1.8.8-.8.3-1.2.8-1.5 1.3-.3.5-.4 1-.4 1.7 0 .5.1.8.2 1.2.2.4.4.6.6.8.3.3.7.5 1.1.7.5.2 1.1.4 1.7.6.7.2 1.2.4 1.6.6.6.3.7.8.7 1.2 0 .4-.1.9-.8 1.3-.4.3-1 .4-1.7.4s-1.3-.2-1.9-.4c-.7-.3-1.6-.8-2.3-1.3-.2.8-.6 1.5-1.1 2.1z"/><path d="M14.3 40.6H9L12.8 20h5.1l-.2 1c.4-.3.7-.5 1.2-.7.8-.4 1.7-.6 2.8-.6 1 0 1.9.2 2.6.5.8.3 1.5.8 2 1.3s.9 1.2 1.2 2c.3.8.4 1.6.4 2.4 0 1.2-.2 2.3-.6 3.4-.4 1.1-1 2-1.7 2.8-.7.8-1.6 1.4-2.6 1.9s-2.1.7-3.3.7c-1.1 0-2.1-.2-2.9-.6-.5-.2-.9-.5-1.3-.9l-1.2 7.4zm-4.3-.9h3.6l1.4-8h.6l.2.2c.3.5.8 1 1.5 1.3.7.3 1.5.5 2.5.5s2-.2 2.9-.6c.9-.4 1.6-1 2.3-1.7.6-.7 1.1-1.5 1.5-2.5.4-1 .5-2 .5-3.1 0-.8-.1-1.5-.4-2.1-.3-.7-.6-1.2-1-1.6-.4-.4-1-.8-1.7-1.1-.7-.3-1.4-.4-2.3-.4-.9 0-1.7.2-2.4.5s-1.3.8-1.8 1.4l-.1.2h-.8v-.5l.2-1.3h-3.3L10 39.7zm9.1-8.6c-1 0-1.9-.3-2.5-.9-.6-.6-.9-1.4-.9-2.3 0-.6.1-1.2.3-1.8.2-.6.5-1.1.9-1.5.4-.5.9-.8 1.4-1 .5-.3 1.1-.4 1.7-.4 1.1 0 1.9.3 2.5 1 .6.6.8 1.4.8 2.3 0 .7-.1 1.3-.3 1.8-.2.5-.4 1-.8 1.5s-.9.8-1.4 1c-.4.2-1 .3-1.7.3zm1.1-7c-.5 0-.9.1-1.4.3-.4.2-.8.5-1.1.8-.3.3-.6.7-.8 1.2-.2.4-.3.9-.3 1.5 0 .7.2 1.3.6 1.7.4.4 1 .6 1.8.6.5 0 1-.1 1.4-.3.4-.2.7-.4 1.1-.8.3-.4.5-.8.7-1.2.2-.4.3-.9.3-1.5 0-.7-.2-1.2-.6-1.7-.3-.4-.9-.6-1.7-.6z"/><path d="M39.7 34.4l-.2 1.5H55l.2-1.5H39.7z"/></symbol><symbol id="gsnab-ico_rouble" viewBox="0 0 60 60"><path d="M30.1 56.2c-.4 0-.9 0-1.3-.1-2-.3-3.9-1.7-4.6-3.5L11.8 23.5c-.5-1.2-.5-2.7 0-4.4l4.1-11.2c.5-1.4 1.6-2.5 3-3.1.6-.3 1.3-.4 1.9-.4.8 0 1.7.1 2.4.4l11 4.7c1.5.6 2.6 1.7 3.2 3.1L49.9 42c.6 1.4.6 2.9 0 4.4-.6 1.4-1.7 2.6-3.1 3.2L31.9 56c-.5 0-1.2.2-1.8.2zM20.9 5.6c-.5 0-1 .1-1.4.3-1.1.5-1.9 1.3-2.3 2.4L13 19.6c-.4 1.2-.4 2.3 0 3.3l12.4 29.4c.8 1.7 2.7 2.8 4.7 2.7.5 0 1-.1 1.5-.3l14.7-6.3c2.3-1 3.3-3.6 2.3-6L36.2 13.1c-.4-1-1.3-1.9-2.5-2.3L22.8 6c-.4-.2-.7-.3-1-.3-.3-.1-.6-.1-.9-.1z"/><path d="M30.3 46.2c-.2-.1-.3-.2-.4-.4l-2.4-5.4-2.5 1c-.1 0-.2.1-.2.1h-.2c-.2 0-.3-.2-.4-.4-.1-.3 0-.7.3-.8l2.5-1.1-.9-2.2-2.6 1c-.1.1-.1.1-.2.1h-.2c-.1 0-.3 0-.4-.3-.1-.3 0-.7.3-.8l2.4-1-4.2-10c-.1-.1-.1-.3 0-.4 0-.2.2-.4.4-.5l7-3c.7-.3 1.5-.5 2.2-.5.9 0 1.7.1 2.6.4 1.5.6 2.7 1.7 3.4 3.4.7 1.7.8 3.4.2 4.9-.6 1.6-1.8 2.8-3.4 3.6l-6.4 2.7.9 2.2 6.9-2.9c.1 0 .2-.1.3-.1.3 0 .5.1.6.3.1.3.1.8-.2 1l-7.1 3 2.3 5.4c.1.3 0 .7-.2.8l-.1.1h-.1l-.2-.2zm-3.6-10.8l6.4-2.7c1.2-.5 2.1-1.5 2.6-2.9.5-1.3.5-2.7-.1-3.9-.6-1.3-1.6-2.3-2.9-2.7-.8-.3-1.4-.4-2.1-.4-.5 0-1.1.2-1.8.4l-6.3 2.7 4.2 9.5z"/></symbol><symbol id="gsnab-ico_sadd" viewBox="0 0 60 60"><path d="M37.5 43.4H6.1c-.3 0-.6-.1-.9-.4-.3-.3-.4-.7-.4-.9V18.8H51c.1 0 .1 0 .2-.1v3.1c0 .4.2.6.6.6s.6-.2.6-.6v-7.3c0-1-.4-1.9-1.1-2.6-.5-.4-1.1-.7-1.7-.7h-43c-.6 0-1.2.2-1.7.7-.7.6-1.1 1.5-1.1 2.6v27.8c0 .3.1 1 .7 1.7.4.4 1 .7 1.6.7h31.3c.4 0 .6-.2.6-.6 0-.5-.2-.7-.5-.7zM5.6 12.8c.3-.2.6-.4.9-.4h43.1c.3 0 .6.1.9.4.4.4.7 1 .7 1.6v3.1c-.1 0-.1-.1-.2-.1H5v-3.1c0-.5.2-1.1.6-1.5zM7 15.1c0-.5.4-.9.9-.9s.9.4.9.9-.4.9-.9.9-.9-.4-.9-.9zm2.7 0c0-.5.4-.9.9-.9s.9.4.9.9-.4.9-.9.9c-.6 0-.9-.4-.9-.9zm2.5 0c0-.5.4-.9.9-.9s.9.4.9.9-.4.9-.9.9-.9-.4-.9-.9zm16 12.7h-9.7c-.4 0-.6-.2-.6-.6 0-.4.2-.6.6-.6h9.7c.4 0 .6.2.6.6 0 .4-.3.6-.6.6zm-12.7 3.7c.2.2.3.6.1.9L13 35.9c-.1.2-.3.2-.5.2-.1 0-.2-.1-.4-.1L10 34.5c-.2-.2-.3-.6-.1-.9s.5-.3.9-.1l1.6 1.2 2.2-3c.3-.3.6-.3.9-.2zm.1-6L13 29c-.1.2-.3.2-.5.2-.1 0-.2-.1-.4-.1L10 27.6c-.2-.2-.2-.6 0-.9.2-.2.5-.3.9-.1l1.6 1.2 2.2-3c.2-.2.6-.3.9-.1.2.1.2.5 0 .8zm10 7.9c.4 0 .6.2.6.6s-.2.6-.6.6h-7.2c-.4 0-.6-.2-.6-.6s.2-.6.6-.6h7.2zm14.8-5.3c.2.2.2.6-.1.9h-.4c-.2 0-.4-.1-.5-.2l-2.2-2.5c-.2-.2-.2-.6.1-.9s.6-.2.9.1l2.2 2.6zm-2.2 3.7c-.1 0-.1 0-.2-.1l-3.2-1.1c-.3-.1-.5-.5-.4-.8s.4-.5.8-.4l3.2 1.1c.3.1.5.5.4.8-.1.3-.4.5-.6.5zm-.4 1.9c.3-.1.7.1.7.5.1.3-.1.7-.5.7l-3.2.6h-.1c-.3 0-.5-.2-.6-.5-.1-.3.1-.7.5-.7l3.2-.6zm2 3.1c.2.2.2.6-.1.9l-2.5 2.2c0 .1-.2.1-.3.1-.2 0-.4-.1-.5-.2-.2-.2-.2-.6.1-.9l2.5-2.2c.2-.2.6-.1.8.1zm10.1-5.4l3.3-.6c.3-.1.7.2.7.5.1.3-.2.7-.5.7l-3.3.6H50c-.3 0-.5-.2-.6-.5 0-.4.2-.7.5-.7zm1.7-4l-2.5 2.2c-.1.1-.2.1-.4.1s-.4-.1-.5-.2c-.2-.2-.2-.6.1-.9l2.5-2.2c.2-.2.6-.2.9.1s.1.7-.1.9zm-4.3-3.8c.3.1.5.5.4.8l-1.1 3.1c-.1.3-.4.5-.6.5-.1 0-.1 0-.2-.1-.3-.1-.5-.5-.4-.8l1.1-3.1c.1-.3.4-.5.8-.4zm-4.4 4.1h-.1c-.3 0-.5-.2-.6-.5l-.6-3.3c-.1-.3.2-.7.5-.7.4-.1.7.2.7.5l.6 3.3c.1.3-.2.6-.5.7zm12 14.1l-11-10.1c-.2-.2-.4-.2-.7-.1s-.4.3-.4.5V47c0 .2.2.5.4.5.2.1.5 0 .7-.2l2.7-3 2.1 4.7c.2.5.7.9 1.2 1.1.2.1.5.1.7.1.3 0 .6-.1.9-.2.5-.2.9-.7 1.1-1.2.2-.5.2-1.1-.1-1.6l-2.1-4.7 4 .1c.2 0 .5-.1.5-.4.1-.1.2-.3 0-.4zm-5.3-.3c-.2 0-.4.1-.5.2-.1.1-.1.4-.1.6l2.5 5.6c.1.2.1.5 0 .7-.1.2-.2.4-.5.5-.2.1-.5.1-.7 0-.2-.1-.4-.2-.5-.5L47.4 43c-.1-.2-.2-.3-.5-.4h-.1c-.2 0-.4.1-.4.2l-2.2 2.7v-12l8.8 8h-3.4z"/></symbol><symbol id="gsnab-ico_settings" viewBox="0 0 60 60"><path d="M34.6 53.9c-1.2 0-2.2-.9-2.4-2.1l-.4-2.3-.3-.1c-.8-.2-1.5-.5-2.2-.9l-.3-.1-1.9 1.3c-.4.3-.9.5-1.5.5-.7 0-1.3-.3-1.8-.7l-1.5-1.6c-.9-.9-1-2.2-.3-3.2l1.3-1.9-.1-.3c-.4-.7-.7-1.4-.9-2.2l-.1-.3-2.2-.3c-1.2-.2-2.1-1.2-2.1-2.5V35c0-1.2.9-2.2 2.1-2.4l2.3-.4.1-.3c.2-.8.5-1.5.9-2.2l.1-.3-1.4-1.9c-.7-1-.6-2.4.3-3.2l1.5-1.5c.5-.5 1.1-.7 1.8-.7.5 0 1 .2 1.4.5l1.9 1.3.3-.1c.7-.4 1.4-.7 2.2-.9l.3-.1.4-2.3c.2-1.2 1.2-2.1 2.5-2.1h2.2c1.2 0 2.3.9 2.5 2.1l.4 2.3.3.1c.8.2 1.5.5 2.2.9l.3.1 1.9-1.3c.4-.3.9-.5 1.4-.5.7 0 1.3.3 1.8.7l1.6 1.5c.9.9 1 2.2.3 3.2L48 29.4l.1.3c.4.7.7 1.4.9 2.2l.1.3 2.2.4c1.2.2 2.1 1.2 2.1 2.5v2.2c0 1.2-.9 2.3-2.1 2.5l-2.3.4-.1.3c-.2.8-.5 1.5-.9 2.2v.1l1.3 1.9c.7 1 .6 2.3-.3 3.2l-1.6 1.6c-.5.5-1.1.7-1.8.7-.5 0-1-.2-1.4-.5l-1.9-1.3-.3.1c-.7.4-1.4.7-2.2.9l-.3.1-.4 2.3c-.1 1.2-1.1 2.1-2.3 2.1h-2.2zm-5.7-6.6c.1 0 .2 0 .3.1 1 .6 2 1 3.1 1.3.2.1.3.2.4.4l.5 2.6c.1.7.7 1.2 1.5 1.2h2.2c.7 0 1.3-.5 1.5-1.2l.5-2.6c0-.2.2-.4.4-.4 1.1-.3 2.1-.7 3.1-1.3.1 0 .2-.1.3-.1.1 0 .2 0 .3.1l2.2 1.5c.3.2.5.3.8.3.4 0 .8-.2 1-.4l1.6-1.6c.5-.5.6-1.3.2-1.9L47 43.1c-.1-.2-.1-.4 0-.5.6-1 1-2 1.3-3.1.1-.2.2-.3.4-.4l2.6-.4c.7-.1 1.2-.7 1.2-1.5V35c0-.7-.5-1.3-1.2-1.5l-2.6-.5c-.2 0-.4-.2-.4-.4-.3-1.1-.7-2.1-1.3-3.1-.1-.2-.1-.4 0-.5l1.5-2.2c.4-.6.4-1.4-.2-1.9l-1.6-1.6c-.3-.3-.6-.4-1-.4-.3 0-.6.1-.9.3l-2.2 1.5c-.1.1-.2.1-.3.1-.1 0-.2 0-.3-.1-1-.6-2-1-3.1-1.3-.2-.1-.3-.2-.4-.4l-.4-2.6c-.1-.7-.7-1.2-1.5-1.2h-2.2c-.7 0-1.3.5-1.5 1.2l-.5 2.6c0 .2-.2.4-.4.4-1.1.3-2.1.7-3.1 1.3-.1 0-.2.1-.3.1-.1 0-.2 0-.3-.1l-2.2-1.5c-.3-.2-.5-.3-.9-.3s-.8.2-1.1.4L23 25c-.5.5-.6 1.3-.2 1.9l1.5 2.2c.1.2.1.4 0 .5-.6 1-1 2-1.3 3.1-.1.2-.2.3-.4.4l-2.6.5c-.7.1-1.2.8-1.2 1.5v2.2c0 .7.5 1.3 1.2 1.5l2.6.5c.2 0 .4.2.4.4.3 1.1.7 2.1 1.3 3.1.1.2.1.4 0 .5l-1.5 2.2c-.4.6-.3 1.4.2 1.9l1.6 1.6c.3.3.7.4 1.1.4.3 0 .6-.1.9-.3l2.2-1.5c-.1-.3 0-.3.1-.3zm6.8-5.2c-3.3 0-5.9-2.7-5.9-5.9s2.7-6 5.9-6c3.3 0 5.9 2.7 6 6-.1 3.2-2.7 5.9-6 5.9zm0-10.9c-2.7 0-4.9 2.2-4.9 4.9S33 41 35.7 41s4.9-2.2 4.9-4.9-2.2-4.9-4.9-4.9zm-24-.7c-.5 0-1.1-.2-1.4-.6l-1.2-1.2c-.7-.7-.8-1.8-.2-2.6l1-1.4-.1-.3c-.2-.5-.4-.9-.6-1.4l-.2-.2-1.6-.3c-1-.2-1.7-1-1.7-2v-1.7c0-1 .7-1.8 1.7-2l1.6-.2.1-.3c.2-.5.4-1 .6-1.4l.1-.3-1-1.4c-.6-.8-.5-1.9.2-2.6l1.2-1.2c.4-.4.9-.6 1.4-.6.4 0 .8.1 1.2.4l1.4 1 .3-.1c.5-.2.9-.4 1.4-.6l.3-.1.3-1.6c.2-1 1-1.7 2-1.7h1.7c1 0 1.8.7 2 1.7l.3 1.6.3.1c.5.2 1 .4 1.4.6l.3.1 1.4-1c.3-.2.7-.4 1.2-.4s1 .2 1.4.6l1.2 1.2c.7.7.8 1.8.2 2.6l-1 1.4.1.3c.2.5.4.9.6 1.4.1.3 0 .6-.3.7h-.2c-.2 0-.4-.1-.5-.3-.2-.7-.5-1.3-.8-1.8-.1-.2-.1-.4 0-.6l1.1-1.6c.3-.4.2-.9-.1-1.3l-1.2-1.2c-.2-.2-.4-.3-.7-.3-.2 0-.4.1-.6.2l-1.6 1.2c-.1.1-.2.1-.3.1-.1 0-.2 0-.3-.1-.7-.4-1.5-.7-2.3-1-.2 0-.4-.2-.4-.4l-.3-2c-.1-.5-.5-.8-1-.8h-1.7c-.5 0-.9.3-1 .8l-.3 2c0 .2-.2.4-.4.4-.8.2-1.6.5-2.3 1-.1 0-.2.1-.3.1-.1 0-.2 0-.3-.1l-1.6-1.1c-.2-.1-.4-.2-.6-.2-.3 0-.5.1-.7.3l-1.2 1.2c-.3.4-.4.9-.1 1.3l1.2 1.6c.1.2.1.4 0 .5-.4.7-.7 1.5-1 2.3-.1.2-.2.3-.4.4l-2 .3c-.5.1-.8.5-.8 1v1.7c0 .5.3.9.8 1l2 .3c.2 0 .4.2.4.4.2.8.5 1.6 1 2.3.1.2.1.4 0 .6l-1.1 1.6c-.3.4-.2.9.1 1.3l1.2 1.2c.2.2.5.3.7.3.2 0 .4-.1.6-.2l1.7-1.2c.1-.1.2-.1.3-.1.1 0 .2 0 .3.1.6.3 1.2.6 1.8.8.3.1.4.4.3.6-.1.2-.3.3-.5.3H16c-.5-.2-1-.3-1.4-.6l-.3-.1-1.4 1c-.4.2-.8.3-1.2.3z"/></symbol><symbol id="gsnab-ico_sign" viewBox="0 0 60 60"><path d="M7.8 46.5c-1.1 0-1.8-.6-2.6-1.5-.5-.9-1.1-1.8-1.1-3.6v-.6l1.1-.3v.9c0 .9.3 1.8.8 2.4.5.6 1.1.9 1.8.9 1.6 0 2.9-1.5 3.9-2.4l1.3-1.5-1-1.8c-.5-.9-1.1-1.8-1.6-3-2.9-7.5-2.9-16.8 0-24.3.8-2.4 1.8-3.9 2.9-5.1 1.1-.9 2.1-1.5 3.2-1.5.5 0 1.1.3 1.6.3 1.3.9 2.4 2.4 2.9 4.8.5 2.1.3 4.2.3 6-.3 6.3-1.8 12.6-3.9 18-.3.6-.5 1.5-1.1 2.4-.3.3-.3.9-.5 1.2l-1.2 3 1.8.5c.8.3 1.8.4 2.6.4s1.8-.3 2.6-.9c1.3-.9 2.4-2.4 3.4-4.2 1.1-2.1 1.8-3.9 2.1-6 0-.3.3-.6.5-.6.3 0 .3.3.5.6v.6c.3 1.2 2.1 6 2.6 7.2l.3.3c1.1 1.8 1.8 3.6 3.4 3.6h.5c1.6-.6 2.9-2.7 3.7-4.8 1.1-2.1 1.8-4.5 2.4-7.2 0-.3.3-.6.5-.6.3 0 .3.3.5.3l1.3 3.3c1.1 3 2.4 6 3.9 7.5.8.9 1.8 1.2 2.9 1.2.5 0 1.1 0 1.3-.3 1.3-.6 1.8-1.5 2.6-3.9l.3-.6 1.1.9-.3.6c-.8 2.1-1.6 3.9-3.4 4.5-.5.3-1.1.3-1.6.3-1.3 0-2.4-.6-3.4-1.2-1.6-1.2-2.6-3.6-3.7-5.7L41.7 33l-1.3 3.6c-.3.6-.5 1.2-.8 1.8-1.1 1.8-2.4 4.5-4.5 5.1h-.8c-1.8 0-3.2-2.4-3.9-4.2l-.3-.6s-.5-1.2-1.1-2.7l-1.3-3s-.5 5.7-6.2 9.2c-.8.6-1.8.9-2.9.9-2.3.1-4.7-1.6-4.7-1.6-3 4.9-4.3 5-6.1 5zm3.6-11.1c.3.6.5 1.2.8 1.8l1.3 2.4 1.3-2.7c.3-.9.8-1.5 1.1-2.1 0-.3.3-.6.3-.9 2.1-5.4 3.4-11.4 3.9-17.4 0-1.5.3-3.6-.3-5.4-.3-1.8-1.1-3-2.1-3.9-.3-.3-.8-.3-1.1-.3-.8 0-1.8.3-2.4 1.2-1.1.9-1.8 2.4-2.6 4.5-3.1 6.9-2.8 15.9-.2 22.8z"/><path d="M4.3 53.1h51.5V55H4.3z"/></symbol><symbol id="gsnab-ico_suppliers" viewBox="0 0 60 60"><path d="M51.3 43.6c-2.8-1.2-3.6-2-3.6-4.1 0-.4.1-.6.3-.8.3-.4.7-1 1.1-2.5v-.1l.1-.1c.6-.3.9-.8 1.1-2.3 0-.7-.2-1.2-.4-1.4.1-.5.2-1.4.2-2.2.1-.8-.1-2.5-1.4-3.9-1-1.1-2.4-1.6-4.1-1.6s-3.2.6-4.1 1.6c-1.2 1.4-1.4 3.1-1.4 3.9.1.8.2 1.7.2 2.2-.2.2-.4.7-.4 1.4.1 1.5.4 2 1.1 2.3 0 0 .1 0 .1.1 0 0 0 .1.1.1.2 1.5.7 2.1 1 2.5.2.3.3.4.3.8 0 1.8-1.5 2.7-4.8 4.1l-.2.1c-1 .4-2.8 1.2-2.8 3v5.6c0 .4.2.6.6.6h20.8c.4 0 .6-.2.6-.6V48c-.1-1.9-1.4-3.2-4.4-4.4zm3 8H34.8v-5c0-.9 1-1.4 2-1.8l.2-.1c3.2-1.3 5.6-2.5 5.6-5.2 0-.9-.3-1.2-.6-1.5-.2-.4-.6-.7-.8-2-.1-.7-.4-.9-.7-1.1-.1-.1-.3-.2-.4-1.2 0-.5.1-.7.1-.6.2-.1.4-.4.3-.6 0 0-.2-1.4-.3-2.5-.1-.6.1-1.9 1.1-3 .7-.8 1.9-1.2 3.2-1.2 1.4 0 2.5.4 3.2 1.2.9 1.1 1.1 2.3 1.1 3-.1 1.1-.3 2.4-.3 2.5-.1.2.1.5.2.6 0 0 .2.1.2.6-.1 1.1-.2 1.2-.4 1.3-.3.2-.6.4-.7 1.1-.2 1.2-.5 1.6-.8 2-.2.4-.6.7-.6 1.5 0 2.8 1.5 4 4.4 5.2 3 1.3 3.5 2.3 3.5 3.3v3.5zm-24.2-4.9H6.4c-.8 0-1.4-.6-1.4-1.4v-30h8.1c.1 0 .1 0 .2-.1s.6-.2.7-.7l.7-2.2H25l.7 2.2c.1.5.6.7.7.7.1.1.2.1.3 0h24.5v9.3c0 .4.2.6.6.6s.6-.2.6-.6v-13c0-.3-.1-1.2-.8-1.9-.5-.5-1.2-.8-1.9-.8H6.4c-1.5 0-2.7 1.2-2.7 2.7v33.7c0 1.5 1.2 2.7 2.7 2.7h23.7c.4 0 .6-.2.6-.6 0-.6-.3-.6-.6-.6zM6.4 10.1h43.4c.4 0 .7.1 1 .4.4.4.4.9.4 1v2.4H26.7l-.7-2.2c-.2-.6-.9-.6-1.1-.6H14.7c-.2 0-.9 0-1.2.7l-.7 2.2H5v-2.4c0-.8.6-1.5 1.4-1.5zm1.4 2.2c0 .4-.3.7-.7.7s-.7-.3-.7-.7c0-.4.3-.7.7-.7s.7.3.7.7zm2.1 0c0 .4-.3.7-.7.7s-.7-.3-.7-.7c0-.4.3-.7.7-.7s.7.3.7.7zm1.9 0c0 .4-.3.7-.7.7s-.7-.3-.7-.7c0-.4.3-.7.7-.7s.7.3.7.7zm19.9 11.1H19.6c-.4 0-.6.2-.6.6s.2.6.6.6h12.2c.4 0 .6-.2.6-.6s-.4-.6-.7-.6zm0 5.9H19.6c-.4 0-.6.2-.6.6s.2.6.6.6h12.2c.4 0 .6-.2.6-.6s-.4-.6-.7-.6zm-19.1-3.1c0 .1.1.1 0 0l.1.1s.1 0 .1.1c.1 0 .1.1.2.1s.2 0 .2-.1l.1-.1c.1 0 .1-.1.1-.1v-.1l2.3-3.2c.2-.2.1-.7-.1-.9s-.7-.1-.9.1l-1.9 2.6-1-.9c-.2-.2-.6-.2-.9 0-.2.2-.2.6 0 .9l1.7 1.5zm-1.4 4.6l1.5 1.4h.1l.1.1s.1 0 .1.1c.1 0 .1.1.2.1s.2 0 .2-.1l.1-.1c.1 0 .1-.1.1-.1v-.1l2.3-3.2c.2-.2.1-.7-.1-.9s-.7-.1-.9.1L13 30.9l-1-.9c-.2-.2-.6-.2-.9 0-.2.2-.2.6.1.8zm20.9 4.8H20c-.4 0-.6.2-.6.6s.2.6.6.6h12.2c.4 0 .6-.2.6-.6s-.3-.6-.7-.6zM13 38.5s.1 0 0 0c.1 0 .1 0 0 0l.1.1s.1 0 .1.1c.1 0 .1.1.2.1s.2 0 .2-.1l.1-.1c.1 0 .1-.1.1-.1v-.1l2.3-3.2c.2-.2.1-.7-.1-.9s-.7-.1-.9.1L13.2 37l-1-.9c-.2-.2-.6-.2-.9 0-.2.2-.2.6 0 .9l1.7 1.5z"/></symbol><symbol id="gsnab-ico_user" viewBox="0 0 60 60"><path d="M30 10.1c2.1 0 6.5 1.2 6.5 5.1v5l.5 1c.1.2.2.4.2.7v1.5c0 .4-.1.8-.4 1.2-1 1.3-2.6 4-2.6 7.4 0 3.7 2.8 4.6 5.1 4.6 1 0 3.5 1 4.4 1.7 1.8 1.3 3.9 3.3 3.9 6.2 0 3.5-1.5 4.1-1.9 4.2H14.3c-.3-.1-1.9-.6-1.9-4.2 0-2.9 2.1-4.8 3.9-6.2.9-.7 3.3-1.7 4.4-1.7 2.3 0 5.1-.8 5.1-4.6 0-3.4-1.7-6.1-2.6-7.4-.3-.3-.4-.8-.4-1.2V22c0-.3.1-.5.2-.7l.5-1v-5c0-4 4.4-5.2 6.5-5.2zm0-1.3c-3.1 0-7.8 1.9-7.8 6.4V20l-.4.8c-.2.4-.3.8-.3 1.3v1.5c0 .7.3 1.4.6 1.9.9 1.2 2.4 3.6 2.4 6.6 0 2.9-2.1 3.3-3.8 3.3-1.4 0-4.1 1.2-5.1 1.9-2.2 1.5-4.4 3.7-4.4 7.1 0 5.1 3 5.5 3 5.5h31.6s3-.3 3-5.5c0-3.3-2.2-5.5-4.4-7.2-1-.8-3.7-1.9-5.1-1.9-1.8 0-3.8-.4-3.8-3.3 0-3 1.5-5.5 2.4-6.6.4-.6.6-1.2.6-1.9V22c0-.4-.1-.9-.3-1.3l-.4-.8v-4.6c-.1-4.5-4.7-6.5-7.8-6.5z"/></symbol><symbol id="gsnab-ico_users" viewBox="0 0 60 60"><path d="M22.7 10.1c2.1 0 6.5 1.2 6.5 5.1v5l.5 1c.1.2.2.4.2.7v1.5c0 .4-.1.8-.4 1.2-1 1.3-2.6 4-2.6 7.4 0 3.7 2.8 4.6 5.1 4.6 1 0 3.5 1 4.4 1.7 1.8 1.3 3.9 3.3 3.9 6.2 0 3.5-1.5 4.1-1.9 4.2H7c-.3-.1-1.9-.6-1.9-4.2 0-2.9 2.1-4.8 3.9-6.2.9-.7 3.3-1.7 4.4-1.7 2.3 0 5.1-.8 5.1-4.6 0-3.4-1.7-6.1-2.6-7.4-.3-.3-.4-.8-.4-1.2V22c0-.3.1-.5.2-.7l.5-1v-5c0-4 4.4-5.2 6.5-5.2zm0-1.3c-3.1 0-7.8 1.9-7.8 6.4V20l-.4.8c-.2.4-.3.8-.3 1.3v1.5c0 .7.3 1.4.6 1.9.9 1.2 2.4 3.6 2.4 6.6 0 2.9-2.1 3.3-3.8 3.3-1.4 0-4.1 1.2-5.1 1.9-2.2 1.5-4.4 3.7-4.4 7.1 0 5.1 3 5.5 3 5.5h31.6s3-.3 3-5.5c0-3.3-2.2-5.5-4.4-7.2-1-.8-3.7-1.9-5.1-1.9-1.8 0-3.8-.4-3.8-3.3 0-3 1.5-5.5 2.4-6.6.4-.6.6-1.2.6-1.9V22c0-.4-.1-.9-.3-1.3l-.4-.8v-4.6c-.1-4.5-4.7-6.5-7.8-6.5zM42 19.5c.8 0 2.1.3 3.1 1s1.5 1.6 1.5 2.7v3.9l.1.3.3.6c.1.1.1.3.1.4v1.2c0 .3-.1.5-.3.7-.8 1.1-2.1 3.2-2.1 6 0 1.7.7 3.8 4.2 3.8.7 0 2.6.8 3.2 1.2 2 1.5 2.8 2.8 2.8 4.5 0 2.1-.7 2.8-1.2 3h-9.8c.5-1 .8-2.3.8-4.2 0-4-2.8-6.6-4.9-8.2-.3-.2-.5-.4-.8-.5-.1-2.5-1.3-4.5-2.1-5.5-.1-.2-.3-.4-.3-.7v-1.2c0-.1.1-.3.1-.4l.3-.6.1-.3v-3.9c0-1.1.5-2 1.5-2.7 1.3-.8 2.6-1.1 3.4-1.1zm0-1.3c-2.4 0-6 1.5-6 4.9v3.6l-.3.6c-.2.3-.3.6-.3 1v1.2c0 .5.2 1.1.5 1.5.7.9 1.8 2.8 1.8 5.1v.3c.5.3 1 .5 1.3.8 2.2 1.6 4.4 3.8 4.4 7.2 0 5.1-3 5.5-3 5.5h13.8s2.3-.3 2.3-4.2c0-2.6-1.7-4.3-3.3-5.5-.8-.6-2.9-1.5-4-1.5-1.3 0-3-.3-3-2.5 0-2.4 1.2-4.2 1.8-5.1.3-.4.5-1 .5-1.5v-1.2c0-.4-.1-.7-.3-1l-.2-.6v-3.6c0-3.5-3.6-5-6-5z"/></symbol><symbol id="gsnab-ico_winner" viewBox="0 0 60 60"><path d="M40.4 27.3L42 8.9c0-.2-.1-.3-.2-.5-.1-.1-.2-.2-.4-.2H18.6c-.2 0-.3.1-.4.2-.2.1-.2.3-.2.5l1.6 18.4c.5 5.1 4 9.2 8.6 10.1.3.1.6-.2.7-.5.1-.3-.2-.6-.5-.7-4.1-.8-7.3-4.4-7.7-9L19.2 9.4h21.6l-1.6 17.7c-.4 4.6-3.6 8.3-7.7 9-.1 0-.1 0-.1.1h-.1c-.1 0-.1.1-.2.1l-.1.1v4.1c0 3.7 3 6.6 6.6 6.6h.1c.7 0 1.2.5 1.2 1.2v.7H21v-.7c0-.7.5-1.2 1.2-1.2h.1c2.6 0 4.8-1.5 6-3.7.1-.3 0-.6-.3-.8-.3-.1-.6 0-.8.3-.9 1.9-2.8 3.1-5 3.1h-.1c-1.3 0-2.4 1-2.4 2.4v1.2c0 .3.2.6.6.6h19.1c.3 0 .6-.2.6-.6v-1.3c0-1.3-1-2.4-2.4-2.4h-.1c-3 0-5.5-2.4-5.5-5.5v-3.3c4.6-.9 7.9-4.9 8.4-9.8zM31.2 35h.1c3.6-.6 6.4-3.9 6.7-7.9l.7-7.8c0-.3-.2-.6-.5-.6s-.6.2-.6.5l-.7 7.8c-.3 3.5-2.7 6.4-5.7 6.9-.3.1-.5.3-.5.7-.1.1.2.4.5.4zm1.4-23.7c0-.3-.2-.6-.6-.6H21.5c-.2 0-.3.1-.4.2-.1.1-.1.3-.1.4l1 11c0 .3.3.5.6.5h.1c.3 0 .6-.3.5-.6l-.9-10.4H32c.3.1.6-.2.6-.5zm16.7 1.6c-.1-.1-.3-.2-.4-.2h-5.8c-.3 0-.6.2-.6.6s.2.6.6.6h5.1c-.2 2.4-1.5 11.3-6.6 13-.3.1-.5.5-.3.8.1.2.3.4.5.4.1 0 .1 0 .2-.1 6.7-2.3 7.4-14.2 7.4-14.7.1-.2 0-.3-.1-.4zm-31 14c-5.1-1.8-6.4-10.6-6.6-13h5.1c.3 0 .6-.2.6-.6 0-.3-.2-.6-.6-.6H11c-.2 0-.3.1-.4.2s-.2.3-.2.4c0 .5.8 12.4 7.4 14.7h.3c.2 0 .5-.2.5-.4.2-.3 0-.6-.3-.7z"/></symbol><symbol id="gsnab-ico_zayavkas" viewBox="0 0 60 60"><path d="M37.5 43.4H6.1c-.3 0-.6-.1-.9-.4-.3-.3-.4-.7-.4-.9V18.8H51c.1 0 .1 0 .2-.1v3.1c0 .4.2.6.6.6s.6-.2.6-.6v-7.3c0-1-.4-1.9-1.1-2.6-.5-.4-1.1-.7-1.7-.7h-43c-.6 0-1.2.2-1.7.7-.7.6-1.1 1.5-1.1 2.6v27.8c0 .3.1 1 .7 1.7.4.4 1 .7 1.6.7h31.3c.4 0 .6-.2.6-.6 0-.5-.2-.7-.5-.7zM5.6 12.8c.3-.2.6-.4.9-.4h43.1c.3 0 .6.1.9.4.4.4.7 1 .7 1.6v3.1c-.1 0-.1-.1-.2-.1H5v-3.1c0-.5.2-1.1.6-1.5zM7 15.1c0-.5.4-.9.9-.9s.9.4.9.9-.4.9-.9.9-.9-.4-.9-.9zm2.7 0c0-.5.4-.9.9-.9s.9.4.9.9-.4.9-.9.9c-.6 0-.9-.4-.9-.9zm2.5 0c0-.5.4-.9.9-.9s.9.4.9.9-.4.9-.9.9-.9-.4-.9-.9zm16 12.7h-9.7c-.4 0-.6-.2-.6-.6 0-.4.2-.6.6-.6h9.7c.4 0 .6.2.6.6 0 .4-.3.6-.6.6zm-12.7 3.7c.2.2.3.6.1.9L13 35.9c-.1.2-.3.2-.5.2-.1 0-.2-.1-.4-.1L10 34.5c-.2-.2-.3-.6-.1-.9s.5-.3.9-.1l1.6 1.2 2.2-3c.3-.3.6-.3.9-.2zm.1-6L13 29c-.1.2-.3.2-.5.2-.1 0-.2-.1-.4-.1L10 27.6c-.2-.2-.2-.6 0-.9.2-.2.5-.3.9-.1l1.6 1.2 2.2-3c.2-.2.6-.3.9-.1.2.1.2.5 0 .8zm10 7.9c.4 0 .6.2.6.6s-.2.6-.6.6h-7.2c-.4 0-.6-.2-.6-.6s.2-.6.6-.6h7.2zm14.8-5.3c.2.2.2.6-.1.9h-.4c-.2 0-.4-.1-.5-.2l-2.2-2.5c-.2-.2-.2-.6.1-.9s.6-.2.9.1l2.2 2.6zm-2.2 3.7c-.1 0-.1 0-.2-.1l-3.2-1.1c-.3-.1-.5-.5-.4-.8s.4-.5.8-.4l3.2 1.1c.3.1.5.5.4.8-.1.3-.4.5-.6.5zm-.4 1.9c.3-.1.7.1.7.5.1.3-.1.7-.5.7l-3.2.6h-.1c-.3 0-.5-.2-.6-.5-.1-.3.1-.7.5-.7l3.2-.6zm2 3.1c.2.2.2.6-.1.9l-2.5 2.2c0 .1-.2.1-.3.1-.2 0-.4-.1-.5-.2-.2-.2-.2-.6.1-.9l2.5-2.2c.2-.2.6-.1.8.1zm10.1-5.4l3.3-.6c.3-.1.7.2.7.5.1.3-.2.7-.5.7l-3.3.6H50c-.3 0-.5-.2-.6-.5 0-.4.2-.7.5-.7zm1.7-4l-2.5 2.2c-.1.1-.2.1-.4.1s-.4-.1-.5-.2c-.2-.2-.2-.6.1-.9l2.5-2.2c.2-.2.6-.2.9.1s.1.7-.1.9zm-4.3-3.8c.3.1.5.5.4.8l-1.1 3.1c-.1.3-.4.5-.6.5-.1 0-.1 0-.2-.1-.3-.1-.5-.5-.4-.8l1.1-3.1c.1-.3.4-.5.8-.4zm-4.4 4.1h-.1c-.3 0-.5-.2-.6-.5l-.6-3.3c-.1-.3.2-.7.5-.7.4-.1.7.2.7.5l.6 3.3c.1.3-.2.6-.5.7zm12 14.1l-11-10.1c-.2-.2-.4-.2-.7-.1s-.4.3-.4.5V47c0 .2.2.5.4.5.2.1.5 0 .7-.2l2.7-3 2.1 4.7c.2.5.7.9 1.2 1.1.2.1.5.1.7.1.3 0 .6-.1.9-.2.5-.2.9-.7 1.1-1.2.2-.5.2-1.1-.1-1.6l-2.1-4.7 4 .1c.2 0 .5-.1.5-.4.1-.1.2-.3 0-.4zm-5.3-.3c-.2 0-.4.1-.5.2-.1.1-.1.4-.1.6l2.5 5.6c.1.2.1.5 0 .7-.1.2-.2.4-.5.5-.2.1-.5.1-.7 0-.2-.1-.4-.2-.5-.5L47.4 43c-.1-.2-.2-.3-.5-.4h-.1c-.2 0-.4.1-.4.2l-2.2 2.7v-12l8.8 8c-.1.1-3.4 0-3.4 0z"/></symbol><symbol id="gsnab-ico_zmdi-check" viewBox="0 0 60 60"><linearGradient id="SVGID_1_" gradientUnits="userSpaceOnUse" x1="4.248" y1="30.162" x2="55.879" y2="30.162"><stop offset=".024" stop-color="#ba3789"/><stop offset=".124" stop-color="#b25093"/><stop offset=".324" stop-color="#a47ca4"/><stop offset=".516" stop-color="#999eb1"/><stop offset=".698" stop-color="#91b7bb"/><stop offset=".864" stop-color="#8cc6c1"/><stop offset="1" stop-color="#8acbc3"/></linearGradient><path d="M4.2 32.7l3.1-3.1L19.7 42l-3.1 3L4.2 32.7zm48.6-17.4l3.1 3.1L29.2 45 16.8 32.7l3.1-3.1 9.3 9.3 23.6-23.6zm-9.5 3.1L29.2 32.6l-3.1-3.1 14.1-14.2 3.1 3.1z"/></symbol><symbol id="gsnab-ico_zmdi-clock" viewBox="0 0 60 60"><linearGradient id="SVGID_1_" gradientUnits="userSpaceOnUse" x1="7.776" y1="29.989" x2="52.224" y2="29.989"><stop offset=".024" stop-color="#ba3789"/><stop offset=".124" stop-color="#b25093"/><stop offset=".324" stop-color="#a47ca4"/><stop offset=".516" stop-color="#999eb1"/><stop offset=".698" stop-color="#91b7bb"/><stop offset=".864" stop-color="#8cc6c1"/><stop offset="1" stop-color="#8acbc3"/></linearGradient><path d="M20.8 11l-10.1 8.5-2.9-3.3L18 7.7l2.8 3.3zm-5 7.2c3.9-3.9 8.6-5.9 14.2-5.9s10.2 2 14.1 5.9c3.9 3.9 5.8 8.6 5.8 14.2S48 42.6 44.1 46.5c-3.9 3.9-8.6 5.8-14.1 5.8s-10.2-1.9-14.2-5.8c-3.9-3.9-5.9-8.6-5.9-14.1s2-10.3 5.9-14.2zM19 43.4c3 3.1 6.7 4.6 11 4.6s8-1.5 11-4.6c3.1-3.1 4.6-6.7 4.6-11s-1.5-8-4.6-11c-3.1-3-6.7-4.5-11-4.5s-8 1.5-11 4.5-4.5 6.7-4.5 11c-.1 4.2 1.4 7.9 4.5 11zm7.7-7.6l10.9-11 2.4 2.4-13.3 13.3-7.1-7.1 2.4-2.3 4.7 4.7zm25.5-19.6l-2.9 3.4L39.1 11 42 7.7l10.2 8.5z"/></symbol><symbol id="gsnab-ico_zmdi-cloud" viewBox="0 0 60 60"><linearGradient id="SVGID_1_" gradientUnits="userSpaceOnUse" x1="128.607" y1="2850.014" x2="602.154" y2="2850.014" gradientTransform="matrix(.1098 0 0 -.1098 -10.06 342.081)"><stop offset=".024" stop-color="#ba3789"/><stop offset=".131" stop-color="#b25294"/><stop offset=".329" stop-color="#a37ca3"/><stop offset=".52" stop-color="#989eb2"/><stop offset=".7" stop-color="#91b7bb"/><stop offset=".865" stop-color="#8bc6c1"/><stop offset="1" stop-color="#8acbc3"/></linearGradient><path d="M46 24.9c2.8.2 5.2 1.3 7.2 3.4 1.9 2.1 2.9 4.5 2.9 7.4 0 3-1.1 5.5-3.2 7.7-2.1 2.1-4.7 3.2-7.7 3.2H17.1c-3.6 0-6.7-1.3-9.2-3.8s-3.8-5.6-3.8-9.2c0-3.4 1.1-6.3 3.3-8.7s5-3.8 8.2-4.2c1.4-2.7 3.4-4.9 6-6.5 2.6-1.6 5.4-2.4 8.4-2.4 3.9 0 7.4 1.3 10.4 3.8 3 2.4 4.9 5.5 5.6 9.3zm-.8 17.2c1.8 0 3.4-.6 4.6-1.9 1.3-1.3 1.9-2.8 1.9-4.6s-.6-3.3-1.9-4.6c-1.3-1.3-2.8-1.9-4.6-1.9h-3.3V28c0-3.3-1.2-6-3.5-8.4-2.3-2.3-5.1-3.5-8.4-3.5-3.9 0-7.1 1.6-9.5 4.8 2.8.8 5.1 2.4 6.9 4.7 1.8 2.3 2.7 4.9 2.7 7.9h-4.4c0-2.4-.8-4.5-2.5-6.2-1.7-1.7-3.7-2.5-6.1-2.5s-4.4.8-6.1 2.5C9.3 29 8.4 31 8.4 33.4s.8 4.5 2.5 6.1S14.6 42 17 42l28.2.1z"/></symbol><symbol id="gsnab-ico_zmdi-lock" viewBox="0 0 60 60"><linearGradient id="SVGID_1_" gradientUnits="userSpaceOnUse" x1="15.555" y1="28.541" x2="44.445" y2="28.541"><stop offset=".024" stop-color="#ba3789"/><stop offset=".124" stop-color="#b25093"/><stop offset=".324" stop-color="#a47ca4"/><stop offset=".516" stop-color="#999eb1"/><stop offset=".698" stop-color="#91b7bb"/><stop offset=".864" stop-color="#8cc6c1"/><stop offset="1" stop-color="#8acbc3"/></linearGradient><path d="M40.9 22.3c1 0 1.8.4 2.5 1.1.7.7 1.1 1.5 1.1 2.5V44c0 1-.4 1.8-1.1 2.5-.7.7-1.5 1.1-2.5 1.1H19.2c-1 0-1.9-.4-2.6-1.1-.7-.7-1.1-1.5-1.1-2.5V25.8c0-1 .4-1.8 1.1-2.5.7-.7 1.6-1.1 2.6-1.1H21v-3.6c0-2.5.9-4.6 2.7-6.4s3.9-2.7 6.4-2.7c2.5 0 4.6.9 6.4 2.7 1.8 1.8 2.6 3.9 2.6 6.4v3.6h1.8zm-5.3 0v-3.6c0-1.5-.6-2.8-1.7-3.9s-2.4-1.7-4-1.7-2.9.6-3.9 1.7c-1.1 1.1-1.6 2.4-1.6 3.9v3.6h11.2zm-8.1 15.2c.7.7 1.6 1.1 2.5 1.1 1 0 1.8-.4 2.5-1.1.7-.7 1.1-1.6 1.1-2.6s-.4-1.9-1.1-2.6c-.7-.7-1.6-1.1-2.5-1.1-1 0-1.8.4-2.5 1.1-.7.7-1.1 1.6-1.1 2.6s.4 1.9 1.1 2.6z"/></symbol><symbol id="gsnab-ico_zmdi-module" viewBox="0 0 60 60"><linearGradient id="SVGID_1_" gradientUnits="userSpaceOnUse" x1="-220.578" y1="537.408" x2="166.922" y2="537.408" gradientTransform="matrix(.1196 0 0 -.1196 33.272 94.283)"><stop offset=".024" stop-color="#c13c8d"/><stop offset=".131" stop-color="#b25294"/><stop offset=".329" stop-color="#a37ca3"/><stop offset=".52" stop-color="#989eb2"/><stop offset=".7" stop-color="#91b7bb"/><stop offset=".865" stop-color="#8bc6c1"/><stop offset="1" stop-color="#8acbc3"/></linearGradient><path d="M6.9 47.7V12.3h13.7v35.4H6.9zm16.3-35.4h30v16.3h-30V12.3zm0 35.4V31.3h13.7v16.3H23.2zm16.4 0V31.3h13.7v16.3H39.6z"/></symbol><symbol id="gsnab-ico_zmdi-phone" viewBox="0 0 60 60"><linearGradient id="SVGID_1_" gradientUnits="userSpaceOnUse" x1="-134.377" y1="1291.198" x2="180.318" y2="1291.198" gradientTransform="matrix(.1196 0 0 -.1196 33.272 183.853)"><stop offset=".024" stop-color="#ba3789"/><stop offset=".131" stop-color="#b25294"/><stop offset=".329" stop-color="#a37ca3"/><stop offset=".52" stop-color="#989eb2"/><stop offset=".7" stop-color="#91b7bb"/><stop offset=".865" stop-color="#8bc6c1"/><stop offset="1" stop-color="#8acbc3"/></linearGradient><path d="M39.8 8.6c1.1 0 2 .4 2.7 1.1.7.7 1.1 1.6 1.1 2.7v33.9c0 1.1-.4 2-1.1 2.7-.7.7-1.6 1.1-2.7 1.1H21c-1.1 0-2-.4-2.7-1.1-.7-.7-1.1-1.6-1.1-2.7V12.4c0-1.1.4-2 1.1-2.7.7-.7 1.6-1.1 2.7-1.1h18.8zm0 35.9V14.3H21v30.2h18.8zm7.5-19.2c1.2 1.2 1.8 2.6 1.8 4.2s-.6 2.9-1.8 4l-1.9-1.9c1.1-1.4 1.1-2.9 0-4.3l1.9-2zm4-4c2.4 2.3 3.5 5 3.5 8.1s-1.2 5.8-3.5 7.9l-1.9-1.9c1.7-1.8 2.6-3.8 2.6-6.2 0-2.4-.9-4.4-2.6-6l1.9-1.9z"/></symbol><symbol id="gsnab-plussell" viewBox="0 0 500 228.1"><linearGradient id="icoLinear" x2="0" y2="1" gradientTransform="rotate(-90)"><stop id="stop1" offset="0%" stop-color="#bb388b"/><stop id="stop2" offset="100%" stop-color="#8cccc4"/></linearGradient><linearGradient id="psLogoLinear" x1="-74.794" x2="478.158" y1="114.049" y2="114.049" gradientUnits="userSpaceOnUse"><stop offset=".024" stop-color="#bb388b"/><stop offset=".152" stop-color="#b5659e"/><stop offset=".313" stop-color="#ac8db0"/><stop offset=".471" stop-color="#a3a7bb"/><stop offset=".622" stop-color="#9ab9c1"/><stop offset=".763" stop-color="#93c4c3"/><stop offset=".893" stop-color="#8ecac4"/><stop offset="1" stop-color="#8cccc4"/></linearGradient><path d="M186.5 19.7c-5.5-5.8-12.6-10.2-20.8-13.5-8.2-3.3-17.5-4.9-27.9-4.9s-20.1 2-29.2 6.4c-9.1 4.2-16.4 10.2-22.3 17.9h-.9l3.8-20.8h-48L0 228.1h50.7L67 137.2h.7c4.2 7.1 10.6 12.6 19 16.8 8.4 4.2 18.6 6.2 30.1 6.2 12.6 0 24.3-2.7 35-7.5 10.6-4.9 19.9-11.7 27.7-20.1 7.7-8.6 13.7-18.4 18.1-29.9 4.2-11.5 6.4-23.7 6.4-36.5 0-9.3-1.5-17.9-4.4-25.9-3.1-8-7.3-14.9-13.1-20.6zM150 90.9c-2 5.8-5.1 10.8-8.8 15.3-3.8 4.4-8.4 8-13.7 10.4-5.3 2.4-11.3 3.8-18.1 3.8-10.4 0-18.4-2.9-24.3-8.8-6-6-8.8-13.5-8.8-22.8 0-6.4 1.1-12.6 3.5-18.4 2.4-6 5.5-11.1 9.5-15.5s8.6-8 14.2-10.6c5.5-2.7 11.3-4 17.7-4 10.6 0 18.6 3.1 24.1 9.3 5.5 6.2 8.2 13.7 8.2 22.8-.2 6.6-1.1 12.8-3.5 18.5z" class="ps_letter ps_p"/><path d="M314.6 78.1c-8.6-6.9-20.1-11.9-35-15.9-6.9-1.8-12.2-3.8-15.5-5.5-3.3-2-5.1-4.6-5.1-8 0-4.9 2.2-8.2 6.9-10.4 4.4-2 9.5-3.1 15-3.1 7.1 0 13.3 1.3 18.6 4 5.1 2.7 9.3 6 12.2 10l31.9-25.7C337.2 15.7 328.8 10 318.1 6c-10.6-4-22.1-6-34.3-6-9.5 0-18.6 1.1-27.2 3.5-8.6 2.2-16.2 5.8-22.6 10.4-6.4 4.6-11.5 10-15.5 16.6-4 6.4-5.8 13.7-5.8 22.1 0 5.8.9 10.8 2.9 15.3 2 4.4 4.6 8.2 8.6 11.5 3.8 3.3 8.4 6.2 14.2 8.8 5.5 2.4 12.2 4.9 19.5 6.9 7.3 2.2 13.1 4.4 16.8 6.6 3.8 2.2 5.8 5.3 5.8 9.3 0 4.2-2 7.5-6.2 10-4.2 2.4-9.5 3.5-16.4 3.5-6.9 0-13.5-2-20.4-4.4-9.1-3.3-23.2-11.7-30.8-17.9-.7 2.2-1.3 4.6-2.2 6.9-3.5 9.5-8.6 18.1-14.6 25.7v.2c7.1 8 16.4 14.4 27.9 19 11.3 4.6 24.3 6.9 38.9 6.9 8.8 0 17.5-1.1 26.1-3.1 8.6-2 16.2-5.3 22.8-9.7s11.9-10 16.2-16.6c4.2-6.9 6.2-14.6 6.2-23.7-.6-13.1-4.8-22.8-13.4-29.7z" class="ps_letter ps_s"/><path d="M342 145.1l-2.2 15.1h158l2.2-15.1z" class="ps_letter ps__"/></symbol></svg>